<svg width="65" height="43" viewBox="0 0 65 43" fill="none" xmlns="http://www.w3.org/2000/svg">
<path d="M51.4583 15.0833C49.9417 15.0833 48.5062 15.3812 47.1521 15.8417L39.1625 0.1875H29.7917V4.25H36.6708L39.0542 8.90833L32.5 23.5604L27.7062 12.2396C28.4375 11.9687 29.0875 11.2375 29.0875 10.3438C29.0875 9.23333 28.1937 8.3125 27.0833 8.3125H21.6667C20.5292 8.3125 19.6083 9.23333 19.6083 10.3438C19.6083 11.4542 20.5292 12.375 21.6667 12.375H23.3187L29.4125 26.5938H26.8667C25.8917 20.0938 20.3125 15.0833 13.5417 15.0833C6.06667 15.0833 0 21.15 0 28.625C0 36.1 6.06667 42.1667 13.5417 42.1667C20.3125 42.1667 25.8917 37.1562 26.8667 30.6562H33.8542L41.4104 13.5396L43.55 17.6833C41.8097 18.9288 40.3911 20.5709 39.4114 22.4736C38.4318 24.3763 37.9194 26.4849 37.9167 28.625C37.9167 36.1 43.9833 42.1667 51.4583 42.1667C58.9333 42.1667 65 36.1 65 28.625C65 21.15 58.9333 15.0833 51.4583 15.0833ZM13.5417 38.1042C8.31458 38.1042 4.0625 33.8521 4.0625 28.625C4.0625 23.3979 8.31458 19.1458 13.5417 19.1458C18.0646 19.1458 21.8562 22.3417 22.7771 26.5938H10.8333V30.6562H22.7771C22.3171 32.7644 21.1507 34.6522 19.4711 36.0067C17.7914 37.3613 15.6994 38.1013 13.5417 38.1042ZM51.4583 38.1042C46.2312 38.1042 41.9792 33.8521 41.9792 28.625C41.9792 25.7 43.3333 23.1271 45.4188 21.3937L50.2937 30.9271L53.8687 28.9771L49.0208 19.4979C49.8062 19.3083 50.6187 19.1458 51.4583 19.1458C56.6854 19.1458 60.9375 23.3979 60.9375 28.625C60.9375 33.8521 56.6854 38.1042 51.4583 38.1042Z" fill="#fff"/>
</svg>
