<svg width="77" height="77" viewBox="0 0 77 77" fill="none" xmlns="http://www.w3.org/2000/svg">
<path d="M26.9883 56.8657L55.3141 57.3311C57.7239 57.3127 59.6194 56.5019 61.0005 54.8989C62.2336 53.4677 62.8647 51.8669 62.8938 50.0965L63.1305 29.5034C63.0865 27.4706 62.3656 25.7024 60.9678 24.1989C59.6846 22.7941 57.912 22.015 55.6502 21.8617L27.3243 21.3963C24.0954 21.2077 21.1875 22.0938 18.6006 24.0543L5.56846 33.6234C4.23848 34.4725 3.55894 35.7822 3.52985 37.5525L3.5602 40.1222C3.45008 41.5235 4.11065 42.8407 5.5419 44.0738L18.4139 53.9669C21.1223 55.8016 23.9804 56.7679 26.9883 56.8657ZM8.49745 37.3438L21.8493 27.751C23.2207 26.7381 25.0787 26.1445 27.4233 25.9702L55.7492 26.4356C56.6018 26.3722 57.2404 26.673 57.6649 27.338C58.0084 27.6339 58.273 28.3108 58.4589 29.3686L58.2221 49.9617C58.2203 50.6584 57.9585 51.2806 57.4366 51.8285C56.9148 52.3763 56.3302 52.6207 55.6828 52.5617L27.3569 52.0963C25.0458 52.0002 23.1746 51.3357 21.7433 50.1026L8.37982 40.0853L8.49745 37.3438ZM18.7259 37.628C19.2412 38.072 19.5226 38.6136 19.5701 39.2531C19.6177 39.8925 19.4195 40.4699 18.9756 40.9851C18.5317 41.5004 17.99 41.7818 17.3505 41.8293C16.7111 41.8769 16.1337 41.6787 15.6185 41.2348C15.1032 40.7909 14.8218 40.2492 14.7743 39.6097C14.7267 38.9703 14.9249 38.3929 15.3688 37.8777C15.8128 37.3624 16.3544 37.081 16.9939 37.0335C17.6333 36.9859 18.2107 37.1841 18.7259 37.628ZM32.3352 47.7074L52.1608 35.4631L52.6787 34.862C53.3692 34.0605 53.4578 33.0894 52.9443 31.9488C52.6343 31.3825 52.1516 31.0165 51.4963 30.8509C50.841 30.6853 50.2302 30.7575 49.6638 31.0675L29.8382 43.3119C29.2146 43.5726 28.8077 44.0449 28.6174 44.7288C28.4272 45.4127 28.4871 46.0379 28.7971 46.6042C29.8179 48.0822 30.9972 48.4499 32.3352 47.7074ZM52.417 41.0701C53.1613 41.7114 53.5834 42.5239 53.6833 43.5077C53.7833 44.4915 53.488 45.3842 52.7974 46.1857C52.1069 46.9872 51.2677 47.4113 50.2799 47.458C49.2921 47.5046 48.4261 47.2074 47.6819 46.5661C46.9376 45.9249 46.5278 45.0981 46.4526 44.0856C46.3773 43.0732 46.6602 42.1948 47.3014 41.4506C47.9427 40.7063 48.7695 40.2965 49.7819 40.2213C50.7944 40.146 51.6728 40.4289 52.417 41.0701ZM33.0831 33.9884C33.8274 34.6296 34.2371 35.4565 34.3124 36.4689C34.3877 37.4814 34.1048 38.3597 33.4635 39.104C32.8223 39.8482 31.9955 40.258 30.983 40.3333C29.9706 40.4086 29.0922 40.1256 28.348 39.4844C27.6037 38.8432 27.1816 38.0307 27.0817 37.0468C26.9817 36.063 27.277 35.1703 27.9675 34.3688C28.6581 33.5673 29.4973 33.1433 30.4851 33.0966C31.4728 33.0499 32.3389 33.3472 33.0831 33.9884Z" fill="#fff"/>
</svg>
