<svg width="54" height="42" viewBox="0 0 54 42" fill="none" xmlns="http://www.w3.org/2000/svg">
<path d="M50.625 0.875H3.375C2.67919 0.876234 2.01222 1.15319 1.52021 1.64521C1.02819 2.13722 0.751234 2.80419 0.75 3.5V38.5C0.751234 39.1958 1.02819 39.8628 1.52021 40.3548C2.01222 40.8468 2.67919 41.1238 3.375 41.125H50.625C51.3208 41.1238 51.9878 40.8468 52.4798 40.3548C52.9718 39.8628 53.2488 39.1958 53.25 38.5V3.5C53.2488 2.80419 52.9718 2.13722 52.4798 1.64521C51.9878 1.15319 51.3208 0.876234 50.625 0.875ZM49.75 4.375V11.375H4.25V4.375H49.75ZM4.25 37.625V18.375H49.75V37.625H4.25Z" fill="#77BC1F"/>
</svg>
