<svg width="60" height="48" viewBox="0 0 60 48" fill="none" xmlns="http://www.w3.org/2000/svg">
<path d="M59.6235 16.5583L58.0606 13.8512C57.7371 13.2908 57.0209 13.0988 56.4599 13.4223C55.8994 13.7459 55.7073 14.4626 56.031 15.0231L57.5939 17.7301C57.6764 17.8728 57.658 18.0088 57.6397 18.0771C57.6214 18.1454 57.5693 18.2724 57.4265 18.3548L53.2937 20.7409C53.075 20.8668 52.795 20.7917 52.6689 20.5735L44.3547 6.17321C44.2286 5.95478 44.3037 5.67448 44.5221 5.54827L48.6549 3.16229C48.8733 3.03644 49.1538 3.1112 49.2798 3.32963L50.7577 5.88951C51.0814 6.45012 51.7981 6.64218 52.3585 6.3184C52.919 5.99486 53.111 5.27816 52.7874 4.71767L51.3094 2.15779C50.5373 0.820372 48.821 0.360191 47.4831 1.13255L43.3503 3.51865C42.7224 3.88121 42.288 4.45178 42.0835 5.09348H30.3675C28.7226 5.09348 27.1761 5.73401 26.0128 6.89717L24.8124 8.0976C23.7599 7.84671 22.6815 7.7177 21.5971 7.7177H17.9593C17.7775 7.01565 17.326 6.38379 16.6499 5.99333L12.517 3.60724C11.869 3.23307 11.1139 3.13381 10.3914 3.3274C9.66874 3.52099 9.06466 3.98457 8.69061 4.63248L0.376534 19.0329C0.00248275 19.6808 -0.0970063 20.4357 0.0965813 21.1584C0.290169 21.8812 0.753748 22.4852 1.40177 22.8593L5.53461 25.2454C5.97464 25.4994 6.45544 25.6201 6.93039 25.6201C7.10347 25.6201 7.27561 25.6033 7.44483 25.5719L10.8275 28.9547C10.7757 29.2206 10.7488 29.4933 10.7488 29.7703C10.7488 30.8963 11.1873 31.9551 11.9836 32.7512C12.746 33.5135 13.7301 33.9216 14.7303 33.9768C14.7149 34.1238 14.7066 34.2721 14.7066 34.4219C14.7066 35.548 15.1451 36.6067 15.9414 37.4028C16.7376 38.1991 17.7963 38.6376 18.9223 38.6376C18.9529 38.6376 18.9831 38.6361 19.0136 38.6354C19.0129 38.6658 19.0113 38.6961 19.0113 38.7266C19.0113 39.8528 19.4498 40.9114 20.2461 41.7076C21.0424 42.5038 22.101 42.9423 23.227 42.9423C23.2576 42.9423 23.2878 42.9408 23.3183 42.9401C23.3176 42.9706 23.3161 43.0008 23.3161 43.0314C23.3161 44.1574 23.7546 45.2162 24.5509 46.0123C25.3471 46.8085 26.4058 47.2471 27.5318 47.2471C28.6578 47.2471 29.7166 46.8086 30.5127 46.0123L32.1798 44.3454C32.6685 43.8566 33.0107 43.2763 33.2089 42.6595C33.9495 43.206 34.8295 43.4794 35.7099 43.4793C36.7893 43.4792 37.8691 43.0683 38.6908 42.2465C39.1825 41.7548 39.5373 41.1629 39.7372 40.5171C40.4156 40.9606 41.208 41.1992 42.0374 41.1992C43.1634 41.1992 44.2222 40.7607 45.0183 39.9645C45.61 39.3727 46.0037 38.6361 46.1672 37.8345C46.5904 37.9747 47.0376 38.0486 47.4964 38.0486C48.6224 38.0486 49.6813 37.6101 50.4774 36.8137C52.121 35.17 52.121 32.4955 50.4774 30.8518L47.7424 28.1167L52.7347 23.1243C52.8456 23.1376 52.9573 23.1451 53.0694 23.1451C53.5444 23.1451 54.0253 23.0244 54.4652 22.7704L58.598 20.3844C59.2459 20.0103 59.7095 19.4063 59.9032 18.6835C60.0969 17.9607 59.9976 17.2062 59.6235 16.5583ZM2.5735 20.8296C2.43077 20.7473 2.37874 20.6203 2.36046 20.5519C2.34218 20.4836 2.32378 20.3477 2.40627 20.2048L10.7204 5.80432C10.8027 5.66159 10.9298 5.60956 10.9981 5.59128C11.0273 5.58354 11.0687 5.57569 11.1177 5.57569C11.1837 5.57569 11.2633 5.58987 11.3451 5.63698L15.4779 8.02308C15.6962 8.14917 15.7714 8.42947 15.6454 8.6479L7.33128 23.0483C7.20507 23.2666 6.925 23.3418 6.70645 23.2157L2.5735 20.8296ZM13.0925 29.7702C13.0925 29.27 13.2873 28.8 13.6409 28.4463L14.6522 27.435C15.0171 27.07 15.4965 26.8876 15.976 26.8876C16.4553 26.8876 16.9348 27.0701 17.2998 27.435C17.6534 27.7887 17.8482 28.2587 17.8482 28.7588C17.8482 29.2588 17.6534 29.7289 17.2998 30.0825L16.2885 31.0938C15.5585 31.8238 14.3709 31.8237 13.6409 31.0938C13.2873 30.7403 13.0925 30.2702 13.0925 29.7702ZM18.9224 36.2939C18.4223 36.2939 17.9522 36.0992 17.5987 35.7456C17.245 35.3921 17.0503 34.9219 17.0503 34.4219C17.0503 33.9219 17.245 33.4517 17.5987 33.0982L19.2656 31.4313C19.6305 31.0663 20.1099 30.8839 20.5893 30.8839C21.0689 30.8839 21.5483 31.0663 21.9132 31.4313C22.2668 31.7848 22.4616 32.2549 22.4616 32.755C22.4616 33.255 22.2668 33.7251 21.9132 34.0787L20.2462 35.7456C19.8926 36.0993 19.4224 36.2939 18.9224 36.2939ZM23.2271 40.5988C22.727 40.5988 22.257 40.404 21.9034 40.0505C21.5498 39.6969 21.355 39.2268 21.355 38.7268C21.355 38.2267 21.5498 37.7566 21.9034 37.4029L23.5704 35.736C23.9353 35.3711 24.4147 35.1886 24.8941 35.1886C25.3735 35.1886 25.853 35.3711 26.2179 35.7361C26.5716 36.0897 26.7663 36.5598 26.7663 37.0598C26.7663 37.5598 26.5716 38.03 26.2179 38.3835L24.551 40.0505C24.1974 40.404 23.7273 40.5988 23.2271 40.5988ZM30.5227 42.6883L28.8556 44.3553C28.5021 44.7089 28.032 44.9036 27.5319 44.9036C27.0318 44.9036 26.5617 44.7089 26.2082 44.3553C25.8545 44.0017 25.6598 43.5317 25.6598 43.0316C25.6598 42.5315 25.8545 42.0615 26.2082 41.7078L27.8751 40.0409C28.24 39.6758 28.7194 39.4934 29.199 39.4934C29.6782 39.4934 30.1577 39.676 30.5227 40.0407C31.2526 40.7706 31.2526 41.9583 30.5227 42.6883ZM48.8204 35.1568C48.4668 35.5104 47.9968 35.7052 47.4966 35.7052C46.9966 35.7052 46.5266 35.5104 46.1729 35.1568L34.9877 23.9716C34.5301 23.5141 33.7883 23.514 33.3304 23.9716C32.8728 24.4292 32.8728 25.1712 33.3304 25.6288L43.3613 35.6598C43.715 36.0134 43.9097 36.4835 43.9097 36.9835C43.9097 37.4836 43.715 37.9537 43.3613 38.3074C43.0078 38.6609 42.5378 38.8557 42.0376 38.8557C41.5375 38.8557 41.0674 38.6609 40.7139 38.3074L28.6603 26.2537C28.2027 25.7962 27.4606 25.7962 27.0029 26.2537C26.5453 26.7113 26.5453 27.4533 27.0029 27.9109L37.0339 37.942C37.3875 38.2955 37.5823 38.7657 37.5823 39.2657C37.5823 39.7657 37.3875 40.2359 37.0339 40.5894C36.304 41.3193 35.1164 41.3196 34.3863 40.5894L32.1802 38.3833C32.1772 38.3803 32.1738 38.3777 32.1707 38.3747C31.3268 37.5358 30.2135 37.1293 29.1078 37.1531C29.1085 37.1221 29.11 37.0911 29.11 37.0598C29.11 35.9338 28.6715 34.875 27.8752 34.0788C27.0302 33.2338 25.9128 32.8244 24.8029 32.8482C24.8036 32.8172 24.8051 32.7862 24.8051 32.7551C24.8051 31.6289 24.3666 30.5703 23.5704 29.774C22.6463 28.8499 21.3963 28.4455 20.1869 28.5605C20.1385 27.509 19.7062 26.5272 18.957 25.778C17.3132 24.1342 14.6386 24.1346 12.9949 25.778L11.9836 26.7892C11.9824 26.7904 11.9812 26.7917 11.9801 26.7929L9.37789 24.1907L17.5354 10.0614H21.597C21.995 10.0614 22.3919 10.0825 22.7865 10.1235L21.447 11.463C20.6507 12.2593 20.2122 13.318 20.2122 14.444C20.2122 15.5702 20.6507 16.6288 21.447 17.4251C22.2689 18.2469 23.3485 18.6579 24.4279 18.6579C25.5075 18.6579 26.5872 18.247 27.409 17.4251L30.5725 14.2616L48.8203 32.5093C49.5503 33.2392 49.5503 34.4269 48.8204 35.1568ZM37.5617 17.936C39.2669 16.7018 40.3122 14.7102 40.3122 12.5464C40.3122 11.8992 39.7874 11.3745 39.1404 11.3745C38.4933 11.3745 37.9685 11.8992 37.9685 12.5464C37.9685 14.0771 37.16 15.4734 35.8699 16.2443L31.4066 11.781C30.9489 11.3234 30.2081 11.3115 29.7504 11.7691L25.7518 15.7678C25.0218 16.4977 23.8342 16.4976 23.1042 15.7678C22.7506 15.4142 22.5558 14.9441 22.5558 14.444C22.5558 13.944 22.7506 13.4739 23.1042 13.1202L27.6701 8.55439C28.3905 7.83394 29.3485 7.43716 30.3675 7.43716H42.3783L50.6391 21.7455C50.6587 21.7794 50.68 21.8116 50.7008 21.8443L46.0854 26.4597L37.5617 17.936Z" fill="white"/>
</svg>
