<svg width="55" height="55" viewBox="0 0 55 55" fill="none" xmlns="http://www.w3.org/2000/svg">
<path d="M27.5 0C12.3363 0 0 12.3363 0 27.5C0 42.6637 12.3363 55 27.5 55C42.6637 55 55 42.6637 55 27.5C55 12.3363 42.6637 0 27.5 0ZM25.8887 13.4982C23.4373 13.3929 21.0106 13.0484 18.6935 12.4882C19.0636 11.6112 19.4652 10.769 19.8982 9.97093C21.6749 6.69708 23.856 4.39968 25.8887 3.56758V13.4982ZM25.8887 16.7234V25.8887H15.8242C15.966 22.3114 16.5757 18.7602 17.584 15.53C20.2562 16.2031 23.0613 16.6105 25.8887 16.7234ZM25.8887 29.1113V38.2766C23.0613 38.3895 20.2562 38.7969 17.584 39.47C16.5757 36.2398 15.966 32.6886 15.8242 29.1113H25.8887ZM25.8887 41.5018V51.4324C23.856 50.6003 21.6749 48.3029 19.8982 45.0291C19.4652 44.231 19.0636 43.3888 18.6935 42.5118C21.0106 41.9516 23.4369 41.6071 25.8887 41.5018ZM29.1113 41.5018C31.5627 41.6071 33.9894 41.9516 36.3065 42.5118C35.9364 43.3888 35.5348 44.231 35.1018 45.0291C33.3251 48.3029 31.144 50.6003 29.1113 51.4324V41.5018ZM29.1113 38.2766V29.1113H39.1758C39.034 32.6886 38.4243 36.2398 37.416 39.47C34.7438 38.7969 31.9387 38.3895 29.1113 38.2766ZM29.1113 25.8887V16.7234C31.9387 16.6105 34.7438 16.2031 37.416 15.53C38.4243 18.7602 39.034 22.3114 39.1758 25.8887H29.1113ZM29.1113 13.4982V3.56758C31.144 4.39968 33.3251 6.69708 35.1018 9.97093C35.5348 10.769 35.9364 11.6112 36.3065 12.4882C33.9894 13.0484 31.5627 13.3929 29.1113 13.4982ZM37.9342 8.43388C37.1273 6.94675 36.2507 5.63587 35.3267 4.51759C38.5485 5.61783 41.4669 7.37812 43.9213 9.63566C42.5214 10.3855 41.0129 11.0368 39.4259 11.581C38.9757 10.4875 38.478 9.4355 37.9342 8.43388ZM17.0658 8.43388C16.522 9.4355 16.0243 10.4875 15.5741 11.581C13.9871 11.0368 12.4786 10.3851 11.0787 9.63566C13.5331 7.37812 16.4515 5.61783 19.6733 4.51759C18.7493 5.63587 17.8732 6.94633 17.0658 8.43388ZM14.4839 14.6098C13.3841 18.1283 12.7375 21.964 12.5982 25.8887H3.27763C3.62255 20.6514 5.63377 15.8619 8.78761 12.0493C10.5378 13.053 12.4546 13.9116 14.4839 14.6098ZM12.5982 29.1113C12.7375 33.0364 13.3841 36.8717 14.4839 40.3902C12.4546 41.0884 10.5378 41.947 8.78761 42.9507C5.63377 39.1381 3.62255 34.3486 3.27763 29.1113H12.5982ZM15.5741 43.419C16.0243 44.5125 16.522 45.5645 17.0658 46.5661C17.8732 48.0532 18.7493 49.3641 19.6733 50.4824C16.4515 49.3822 13.5331 47.6219 11.0791 45.3643C12.4781 44.6149 13.9871 43.9632 15.5741 43.419ZM37.9342 46.5661C38.478 45.5645 38.9757 44.5125 39.4259 43.419C41.0129 43.9632 42.5214 44.6149 43.9213 45.3643C41.4669 47.6219 38.5485 49.3822 35.3267 50.4824C36.2507 49.3641 37.1268 48.0537 37.9342 46.5661ZM40.5161 40.3902C41.6159 36.8717 42.2625 33.036 42.4018 29.1113H51.7224C51.3774 34.3486 49.3662 39.1381 46.2124 42.9507C44.4622 41.947 42.5454 41.0884 40.5161 40.3902ZM42.4018 25.8887C42.2625 21.9636 41.6159 18.1283 40.5161 14.6098C42.5454 13.9116 44.4622 13.053 46.2124 12.0493C49.3662 15.8619 51.3774 20.6514 51.7224 25.8887H42.4018Z" fill="#77BC1F"/>
</svg>
