<svg width="28" height="28" viewBox="0 0 28 28" fill="none" xmlns="http://www.w3.org/2000/svg">
<circle cx="14" cy="14" r="14" fill="#77BC1F"/>
<path d="M14.0739 6.63086C10.7813 6.63086 8.10547 9.3067 8.10547 12.5993C8.10547 14.6086 9.26931 16.2898 10.6222 17.4635C11.0499 17.8316 11.7959 18.4185 12.4624 19.2839C13.1985 20.2488 13.865 21.2833 14.0739 21.9796C14.2828 21.2833 14.9493 20.2488 15.6854 19.2839C16.3518 18.4185 17.0979 17.8316 17.5256 17.4635C18.8785 16.2898 20.0423 14.6086 20.0423 12.5993C20.0423 9.3067 17.3665 6.63086 14.0739 6.63086ZM14.0739 9.17739C14.5233 9.17739 14.9682 9.2659 15.3834 9.43786C15.7986 9.60983 16.1758 9.86188 16.4935 10.1796C16.8113 10.4974 17.0633 10.8746 17.2353 11.2898C17.4073 11.7049 17.4958 12.1499 17.4958 12.5993C17.4958 13.0486 17.4073 13.4936 17.2353 13.9088C17.0633 14.3239 16.8113 14.7012 16.4935 15.0189C16.1758 15.3367 15.7986 15.5887 15.3834 15.7607C14.9682 15.9327 14.5233 16.0212 14.0739 16.0212C13.1663 16.0212 12.296 15.6607 11.6542 15.0189C11.0125 14.3772 10.652 13.5068 10.652 12.5993C10.652 11.6917 11.0125 10.8214 11.6542 10.1796C12.296 9.53791 13.1663 9.17739 14.0739 9.17739Z" fill="white"/>
</svg>
