<svg data-name="Layer 1" xmlns="http://www.w3.org/2000/svg" viewBox="0 0 701.73 180.86"><path d="M305.73 161.5h-55.78v-34.51h55.78v34.51zm0-53.86h-55.78V75.88h55.78v31.75zm-76.16-51.12v124.34h79.93l16.61-17.34v-36.54l-10.93-10 10.93-9.31V73.86L309.5 56.52zm130.55 33.29l-13.18 13.54v77.51h19.34v-72.73h19.75l17.73-18.32zm105 72.73h-42.74v-18.73h42.74v18.73zm-44.43-72.73h50.59l13.19 13.54v64l-13.19 13.51h-55.07l-13.18-13.55v-28.63l13.19-13.19h48.9v-17.37h-62.76l18.33-18.31zm212.92 72l-15.39-26.63 15.39-26.64h30.76l15.38 26.64-15.38 26.63zm41.75-72.32h-52.74l-26.34 45.7 26.37 45.67h52.74l26.37-45.67-26.37-45.69zm-89.82.31h22.44l-53.56 91.05h-12.41L488.44 89.8h22.45l37.32 63.43 37.33-63.43zM73.96 143.17L43.51 90.43l30.45-52.74h60.9l30.42 52.74-30.45 52.74zM156.62 0H52.21L0 90.43l52.21 90.43h104.41l52.2-90.43z" fill="#79bc43" fill-rule="evenodd"/></svg>