<svg id="Layer_1" data-name="Layer 1" xmlns="http://www.w3.org/2000/svg" viewBox="0 0 492.33 386.72"><defs><style>.cls-1{fill:#fff;fill-rule:evenodd;}</style></defs><title>BRAVO LOGO_vertical</title><path class="cls-1" d="M264.69,396.9l-41.32-71.57,41.32-71.55h82.64l41.31,71.55L347.33,396.9ZM376.84,202.64H235.17L164.33,325.33,235.17,448H376.84l70.83-122.71L376.84,202.64ZM139.25,569.18H81.09v-36h58.16v36Zm0-56.17H81.09V479.9h58.16V513Zm-79.42-53.3V589.36h83.35l17.32-18.08v-38.1l-11.39-10.4,11.39-9.71V477.79l-17.32-18.08ZM196,494.42l-13.75,14.12v80.82h20.17V513.53H223l18.48-19.11Zm109.47,75.83H260.88V550.72h44.56v19.53Zm-46.32-75.83h52.76l13.75,14.12v66.69l-13.75,14.13H254.45L240.7,575.23V545.38l13.76-13.76h51v-18.1H240l19.11-19.1Zm222,75.09-16-27.78,16-27.77h32.08l16,27.77-16,27.78Zm43.54-75.41h-55l-27.5,47.63,27.5,47.63h55l27.5-47.63-27.5-47.63Zm-93.66.32h23.4l-55.85,94.94H385.62l-55.85-94.94h23.4l38.92,66.14Z" transform="translate(-59.83 -202.64)"/></svg>