<svg width="118" height="118" fill="none" xmlns="http://www.w3.org/2000/svg"><path d="M58.999 9.832c-27.11 0-49.167 22.056-49.167 49.167 0 27.11 22.056 49.166 49.167 49.166 27.11 0 49.166-22.056 49.166-49.166 0-27.11-22.056-49.167-49.166-49.167zm0 88.5c-21.688 0-39.334-17.646-39.334-39.333 0-21.688 17.646-39.334 39.334-39.334 21.687 0 39.333 17.646 39.333 39.334 0 21.687-17.646 39.333-39.333 39.333z" fill="#77BC1F"/><path fill="#77BC1F" d="M54 33h11v31H54z"/><circle cx="59.5" cy="75.5" r="5.5" fill="#77BC1F"/></svg>