<svg width="46" height="53" fill="none" xmlns="http://www.w3.org/2000/svg"><path d="M44.204 12.968L32.082.846C31.518.282 30.785 0 29.996 0H3.383A3.393 3.393 0 000 3.383v46.234A3.393 3.393 0 003.383 53h38.34a3.393 3.393 0 003.383-3.383V15.223c0-.845-.338-1.691-.902-2.255zM22.581 24.752L16.07 38.848 33.5 27l-14.104 1.36h6.371v10.488h3.327L22.58 24.752zm15.14-1.184c0 .677 1.779 1.184 3.779-8.068l-15.733-7C25.09 8.5 7 13.12 7 12.5l.443 3.456c0-.676.563-1.184 1.184-1.184h27.91c.676 0 1.183.564 1.183 1.184v7.612z" fill="#dedddd"/><path d="M15.995 14a6.045 6.045 0 00-4.227 1.768A6.046 6.046 0 0010 19.995a6.28 6.28 0 001.862 4.477l5 5a.665.665 0 00.943 0 .667.667 0 000-.943l-5-5a4.945 4.945 0 01-1.471-3.524 4.714 4.714 0 011.377-3.293c.9-.9 2.099-1.37 3.294-1.378a4.945 4.945 0 013.524 1.471l5 5a.668.668 0 001.147-.469.666.666 0 00-.205-.474l-5-5A6.28 6.28 0 0015.995 14zm11.662.658a.667.667 0 00-.657.676V20a.667.667 0 101.333 0v-4.666a.667.667 0 00-.676-.676zM30 21.667A.667.667 0 1030 23h4.666a.666.666 0 100-1.333H30zm-1.34 2.66a.666.666 0 00-.465 1.145l5 5a4.944 4.944 0 011.471 3.523 4.714 4.714 0 01-1.377 3.294c-.9.9-2.099 1.368-3.294 1.377a4.944 4.944 0 01-3.524-1.47l-5-5a.668.668 0 00-.942.943l5 5a6.278 6.278 0 004.476 1.86 6.045 6.045 0 004.227-1.767A6.047 6.047 0 0036 34.005a6.28 6.28 0 00-1.862-4.476l-5-5a.665.665 0 00-.479-.202zM11.333 31a.666.666 0 100 1.333H16a.668.668 0 00.625-.924A.668.668 0 0016 31h-4.666zm6.99 2.324a.667.667 0 00-.657.676v4.666a.668.668 0 101.333 0V34a.667.667 0 00-.676-.676z" fill="#B7B6C2"/></svg>