<svg width="46" height="53" fill="none" xmlns="http://www.w3.org/2000/svg"><path d="M15.504 16.634c.395-.056.958-.113 1.748-.113s1.353.17 1.748.451c.338.282.62.733.62 1.297s-.17 1.015-.508 1.354c-.45.394-1.07.62-1.86.62H16.8v2.03h-1.297v-5.639zm1.297 2.594c.113 0 .225.056.45.056.677 0 1.128-.338 1.128-.902 0-.507-.338-.846-1.015-.846-.281 0-.45 0-.507.057v1.635h-.056zM20.412 16.634a14.323 14.323 0 011.748-.113c1.071 0 1.804.17 2.311.62.564.452.959 1.128.959 2.143 0 1.072-.395 1.86-.959 2.312-.62.507-1.522.733-2.65.733-.676 0-1.127-.056-1.466-.056v-5.639h.057zm1.297 4.624h.45c1.185 0 1.918-.62 1.918-1.974 0-1.184-.677-1.804-1.805-1.804-.281 0-.45 0-.563.056v3.722zM26.273 16.521h3.496v1.072H27.57v1.297h2.03v1.07h-2.03v2.313h-1.297V16.52z" fill="#77BC1F"/><path d="M44.204 12.968L32.082.846C31.518.282 30.785 0 29.996 0H3.383A3.393 3.393 0 000 3.383v46.234A3.393 3.393 0 003.383 53h38.34a3.393 3.393 0 003.383-3.383V15.223c0-.845-.338-1.691-.902-2.255zm-21.65 32.364l-6.485-6.484h3.327V28.36h6.371v10.487h3.327l-6.54 6.484zM37.72 23.568a1.19 1.19 0 01-1.184 1.184H8.626a1.19 1.19 0 01-1.183-1.184v-7.612c0-.676.563-1.184 1.184-1.184h27.91c.676 0 1.183.564 1.183 1.184v7.612z" fill="#77BC1F"/></svg>