<svg width="45" height="57" fill="none" xmlns="http://www.w3.org/2000/svg"><circle cx="22.5" cy="22.5" r="12.5" fill="#77BC1F"/><path d="M22.5 1.25c-11.723 0-21.25 9.527-21.25 21.25 0 7.154 4.144 13.14 8.96 17.319 1.523 1.31 4.18 3.4 6.552 6.481 2.621 3.435 4.994 7.119 5.738 9.598.744-2.48 3.117-6.163 5.738-9.598 2.372-3.081 5.029-5.17 6.552-6.481 4.816-4.18 8.96-10.165 8.96-17.319 0-11.723-9.527-21.25-21.25-21.25zm0 9.067a12.183 12.183 0 110 24.366 12.183 12.183 0 010-24.366z" fill="#77BC1F"/><path d="M28.972 12.5H16.028L10 23.125l6.028 10.625h12.944L35 23.125 28.972 12.5z" stroke="#fff" stroke-width="3.699"/></svg>