<svg width="53" height="53" viewBox="0 0 53 53" fill="none" xmlns="http://www.w3.org/2000/svg">
<circle cx="26.0307" cy="26.0307" r="26.0307" fill="#3B5998"/>
<g clip-path="url(#clip0)">
<path d="M31.8844 14.3213L28.8464 14.3164C25.4333 14.3164 23.2276 16.5794 23.2276 20.082V22.7403H20.173C19.9091 22.7403 19.6953 22.9543 19.6953 23.2182V27.0698C19.6953 27.3338 19.9093 27.5475 20.173 27.5475H23.2276V37.2663C23.2276 37.5302 23.4413 37.744 23.7053 37.744H27.6906C27.9546 37.744 28.1683 37.53 28.1683 37.2663V27.5475H31.7398C32.0038 27.5475 32.2175 27.3338 32.2175 27.0698L32.219 23.2182C32.219 23.0915 32.1686 22.9701 32.0791 22.8804C31.9897 22.7907 31.8678 22.7403 31.7411 22.7403H28.1683V20.4868C28.1683 19.4037 28.4264 18.8538 29.8373 18.8538L31.8839 18.8531C32.1476 18.8531 32.3613 18.6391 32.3613 18.3754V14.799C32.3613 14.5355 32.1478 14.3218 31.8844 14.3213Z" fill="white"/>
</g>
<defs>
<clipPath id="clip0">
<rect x="14.3125" y="14.3125" width="23.4276" height="23.4276" fill="white"/>
</clipPath>
</defs>
</svg>
