<svg width="53" height="53" viewBox="0 0 53 53" fill="none" xmlns="http://www.w3.org/2000/svg">
<circle cx="26.0307" cy="26.0307" r="26.0307" fill="#C13584"/>
<path d="M26.6851 22.991C24.6537 22.991 22.9959 24.6488 22.9959 26.6802C22.9959 28.7117 24.6537 30.3695 26.6851 30.3695C28.7165 30.3695 30.3742 28.7117 30.3742 26.6802C30.3742 24.6488 28.7165 22.991 26.6851 22.991ZM37.7498 26.6802C37.7498 25.1525 37.7637 23.6386 37.6779 22.1136C37.5921 20.3424 37.188 18.7703 35.8928 17.4751C34.5948 16.1771 33.0256 15.7758 31.2543 15.69C29.7266 15.6042 28.2128 15.618 26.6878 15.618C25.1601 15.618 23.6463 15.6042 22.1213 15.69C20.3501 15.7758 18.7781 16.1798 17.4829 17.4751C16.1849 18.7731 15.7836 20.3424 15.6978 22.1136C15.612 23.6414 15.6258 25.1553 15.6258 26.6802C15.6258 28.2052 15.612 29.7218 15.6978 31.2468C15.7836 33.0181 16.1876 34.5901 17.4829 35.8853C18.7809 37.1834 20.3501 37.5847 22.1213 37.6705C23.649 37.7563 25.1629 37.7424 26.6878 37.7424C28.2155 37.7424 29.7294 37.7563 31.2543 37.6705C33.0256 37.5847 34.5976 37.1806 35.8928 35.8853C37.1908 34.5873 37.5921 33.0181 37.6779 31.2468C37.7664 29.7218 37.7498 28.2079 37.7498 26.6802ZM26.6851 32.3566C23.5439 32.3566 21.0088 29.8215 21.0088 26.6802C21.0088 23.539 23.5439 21.0038 26.6851 21.0038C29.8263 21.0038 32.3614 23.539 32.3614 26.6802C32.3614 29.8215 29.8263 32.3566 26.6851 32.3566ZM32.5938 22.097C31.8604 22.097 31.2682 21.5048 31.2682 20.7713C31.2682 20.0379 31.8604 19.4456 32.5938 19.4456C33.3272 19.4456 33.9195 20.0379 33.9195 20.7713C33.9197 20.9455 33.8856 21.118 33.819 21.2789C33.7525 21.4399 33.6548 21.5861 33.5317 21.7092C33.4086 21.8324 33.2623 21.93 33.1014 21.9966C32.9405 22.0631 32.768 22.0972 32.5938 22.097Z" fill="white"/>
</svg>
