<svg id="Layer_1" data-name="Layer 1" xmlns="http://www.w3.org/2000/svg" viewBox="0 0 701.73 180.86"><defs><style>.cls-1{fill:#79bc43;fill-rule:evenodd;}</style></defs><title>BRAVO LOGO_horizontal </title><path class="cls-1" d="M350.45,376.87H294.67V342.36h55.78v34.51Zm0-53.86H294.67V291.25h55.78V323Zm-76.16-51.12V396.23h79.93l16.61-17.34V342.35l-10.93-10,10.93-9.31V289.23l-16.61-17.34Zm130.55,33.29-13.18,13.54v77.51H411V323.5h19.75l17.73-18.32Zm105,72.73H467.1V359.18h42.74v18.73Zm-44.43-72.73H516l13.19,13.54v64L516,396.23H460.93l-13.18-13.55V354.05l13.19-13.19h48.9V323.49H447.08l18.33-18.31Zm212.92,72-15.39-26.63,15.39-26.64h30.76l15.38,26.64-15.38,26.63Zm41.75-72.32H667.34L641,350.56l26.37,45.67h52.74l26.37-45.67-26.37-45.69Zm-89.82.31H652.7l-53.56,91.05H586.73l-53.57-91.05h22.45l37.32,63.43,37.33-63.43ZM118.68,358.54,88.23,305.8l30.45-52.74h60.9L210,305.8l-30.45,52.74Zm82.66-143.17H96.93L44.72,305.8l52.21,90.43H201.34l52.2-90.43Z" transform="translate(-44.72 -215.37)"/></svg>