<svg width="53" height="53" viewBox="0 0 53 53" fill="none" xmlns="http://www.w3.org/2000/svg">
<path d="M52.0613 26.0307C52.0613 40.407 40.407 52.0613 26.0307 52.0613C11.6543 52.0613 0 40.407 0 26.0307C0 11.6543 11.6543 0 26.0307 0C40.407 0 52.0613 11.6543 52.0613 26.0307Z" fill="#0077B5"/>
<path d="M19.5186 16.9234C19.5186 18.3056 18.5945 19.4952 16.9143 19.4952C15.3329 19.4952 14.3125 18.3733 14.3125 16.9911C14.3125 15.5724 15.3017 14.3203 16.9156 14.3203C18.5295 14.3203 19.4874 15.5047 19.5186 16.9234ZM14.3125 37.7479V20.828H19.5186V37.7479H14.3125Z" fill="white"/>
<path d="M22.121 26.6123C22.121 24.6014 22.0547 22.9211 21.9883 21.4699H26.666L26.8977 23.7124H26.9966C27.6552 22.6569 29.2691 21.1094 31.971 21.1094C35.2665 21.1094 37.7394 23.3155 37.7394 28.0622V37.7482H32.5333V28.8184C32.5333 26.7437 31.7433 25.161 29.9302 25.161C28.548 25.161 27.8556 26.2804 27.4925 27.2032C27.3597 27.5337 27.3272 27.9945 27.3272 28.4565V37.7482H22.121V26.6123Z" fill="white"/>
</svg>
