<svg width="118" height="118" viewBox="0 0 118 118" fill="none" xmlns="http://www.w3.org/2000/svg">
<path d="M58.9987 9.83203C31.8882 9.83203 9.83203 31.8882 9.83203 58.9987C9.83203 86.1092 31.8882 108.165 58.9987 108.165C86.1092 108.165 108.165 86.1092 108.165 58.9987C108.165 31.8882 86.1092 9.83203 58.9987 9.83203ZM58.9987 98.332C37.3113 98.332 19.6654 80.6861 19.6654 58.9987C19.6654 37.3113 37.3113 19.6654 58.9987 19.6654C80.6861 19.6654 98.332 37.3113 98.332 58.9987C98.332 80.6861 80.6861 98.332 58.9987 98.332Z" fill="#77BC1F"/>
<rect x="54" y="33" width="11" height="31" fill="#77BC1F"/>
<circle cx="59.5" cy="75.5" r="5.5" fill="#77BC1F"/>
</svg>
