<svg width="46" height="53" viewBox="0 0 46 53" fill="none" xmlns="http://www.w3.org/2000/svg">
<path d="M44.2043 12.9681L32.0819 0.845745C31.5181 0.281915 30.7851 0 29.9957 0H3.38298C1.52234 0 0 1.52234 0 3.38298V49.617C0 51.4777 1.52234 53 3.38298 53H41.7234C43.584 53 45.1064 51.4777 45.1064 49.617V15.2234C45.1064 14.3777 44.7681 13.5319 44.2043 12.9681ZM22.5814 24.7521L16.0691 38.8479L33.5 27L19.3957 28.3606H25.767V38.8479H29.0936L22.5814 24.7521ZM37.7202 23.5681C37.7202 24.2447 39.5 24.7521 41.5 15.5L25.767 8.5C25.0904 8.5 7 13.1202 7 12.5L7.44255 15.9564C7.44255 15.2798 8.00638 14.7723 8.6266 14.7723H36.5362C37.2128 14.7723 37.7202 15.3362 37.7202 15.9564V23.5681Z" fill="#dedddd"/>
<path d="M15.9949 14.0002C14.4573 14.0117 12.9223 14.6144 11.7684 15.7684C10.6144 16.9223 10.0117 18.458 10.0002 19.9955C9.98793 21.6251 10.6371 23.247 11.8621 24.472L16.8621 29.472C16.924 29.5339 16.9975 29.583 17.0784 29.6164C17.1594 29.6499 17.2461 29.6671 17.3336 29.6671C17.4212 29.6671 17.5079 29.6498 17.5888 29.6163C17.6697 29.5827 17.7432 29.5336 17.8051 29.4716C17.867 29.4097 17.9161 29.3362 17.9496 29.2553C17.983 29.1744 18.0003 29.0876 18.0002 29.0001C18.0002 28.9125 17.9829 28.8258 17.9494 28.7449C17.9158 28.664 17.8667 28.5905 17.8048 28.5286L12.8048 23.5287C11.8292 22.553 11.324 21.2742 11.3335 20.0053C11.3425 18.8096 11.8115 17.6113 12.7111 16.7117C13.6106 15.8122 14.8096 15.3425 16.0053 15.3335C17.2742 15.324 18.553 15.8298 19.5287 16.8055L24.5286 21.8048C24.5901 21.8687 24.6636 21.9198 24.7451 21.955C24.8265 21.9902 24.9141 22.0088 25.0028 22.0097C25.0915 22.0106 25.1795 21.9938 25.2616 21.9603C25.3437 21.9267 25.4183 21.8772 25.481 21.8144C25.5437 21.7517 25.5933 21.6771 25.6268 21.595C25.6604 21.5129 25.6772 21.4249 25.6763 21.3362C25.6754 21.2475 25.6568 21.1599 25.6216 21.0785C25.5864 20.9971 25.5353 20.9235 25.4713 20.8621L20.4714 15.8621C19.2464 14.6371 17.6245 13.9879 15.9949 14.0002ZM27.6568 14.6577C27.4801 14.6603 27.3117 14.7329 27.1885 14.8596C27.0654 14.9864 26.9975 15.1568 26.9999 15.3335V20.0001C26.9987 20.0884 27.015 20.1761 27.048 20.2581C27.0809 20.3401 27.1298 20.4147 27.1918 20.4776C27.2539 20.5405 27.3278 20.5905 27.4093 20.6246C27.4908 20.6587 27.5783 20.6762 27.6666 20.6762C27.755 20.6762 27.8424 20.6587 27.9239 20.6246C28.0054 20.5905 28.0793 20.5405 28.1414 20.4776C28.2034 20.4147 28.2523 20.3401 28.2852 20.2581C28.3182 20.1761 28.3345 20.0884 28.3333 20.0001V15.3335C28.3345 15.2444 28.3178 15.1559 28.2842 15.0733C28.2507 14.9907 28.2009 14.9157 28.1378 14.8527C28.0748 14.7897 27.9997 14.74 27.9171 14.7065C27.8345 14.673 27.746 14.6564 27.6568 14.6577V14.6577ZM29.9999 21.6667C29.9116 21.6655 29.8239 21.6818 29.7419 21.7148C29.6599 21.7477 29.5853 21.7966 29.5224 21.8586C29.4595 21.9207 29.4095 21.9946 29.3754 22.0761C29.3413 22.1576 29.3238 22.245 29.3238 22.3334C29.3238 22.4217 29.3413 22.5092 29.3754 22.5907C29.4095 22.6722 29.4595 22.7461 29.5224 22.8082C29.5853 22.8702 29.6599 22.9191 29.7419 22.952C29.8239 22.985 29.9116 23.0013 29.9999 23.0001H34.6665C34.7549 23.0013 34.8426 22.985 34.9245 22.952C35.0065 22.9191 35.0811 22.8702 35.144 22.8082C35.207 22.7461 35.2569 22.6722 35.291 22.5907C35.3251 22.5092 35.3427 22.4217 35.3427 22.3334C35.3427 22.245 35.3251 22.1576 35.291 22.0761C35.2569 21.9946 35.207 21.9207 35.144 21.8586C35.0811 21.7966 35.0065 21.7477 34.9245 21.7148C34.8426 21.6818 34.7549 21.6655 34.6665 21.6667H29.9999ZM28.6594 24.3269C28.5267 24.3269 28.3971 24.3665 28.287 24.4407C28.177 24.5148 28.0915 24.6201 28.0417 24.7431C27.9918 24.8661 27.9798 25.0012 28.0072 25.131C28.0345 25.2609 28.1 25.3796 28.1952 25.472L33.1952 30.472C34.1708 31.4476 34.676 32.7265 34.6665 33.9954C34.6575 35.191 34.1885 36.3894 33.2889 37.2889C32.3894 38.1885 31.1904 38.6575 29.9947 38.6665C28.7259 38.6762 27.447 38.1708 26.4713 37.1952L21.4714 32.1952C21.4094 32.1333 21.3359 32.0843 21.255 32.0508C21.1741 32.0173 21.0874 32.0001 20.9998 32.0001C20.9122 32.0001 20.8255 32.0174 20.7446 32.051C20.6637 32.0845 20.5903 32.1336 20.5284 32.1956C20.4665 32.2575 20.4174 32.331 20.3839 32.412C20.3504 32.4929 20.3332 32.5796 20.3332 32.6672C20.3332 32.7547 20.3505 32.8414 20.3841 32.9223C20.4176 33.0032 20.4667 33.0767 20.5287 33.1386L25.5286 38.1385C26.7536 39.3636 28.3755 40.0122 30.0051 39.9998C31.5427 39.9882 33.0777 39.3862 34.2316 38.2323C35.3856 37.0783 35.9883 35.5426 35.9998 34.0051C36.0121 32.3755 35.3629 30.7537 34.1379 29.5286L29.1379 24.5287C29.0757 24.4647 29.0013 24.4139 28.9191 24.3793C28.837 24.3446 28.7486 24.3268 28.6594 24.3269V24.3269ZM11.3335 30.9999C11.2451 30.9987 11.1574 31.015 11.0755 31.048C10.9935 31.0809 10.9189 31.1298 10.856 31.1918C10.793 31.2539 10.7431 31.3278 10.709 31.4093C10.6749 31.4908 10.6573 31.5783 10.6573 31.6666C10.6573 31.755 10.6749 31.8424 10.709 31.9239C10.7431 32.0054 10.793 32.0793 10.856 32.1414C10.9189 32.2034 10.9935 32.2523 11.0755 32.2853C11.1574 32.3182 11.2451 32.3345 11.3335 32.3333H16.0001C16.0884 32.3345 16.1761 32.3182 16.2581 32.2853C16.3401 32.2523 16.4147 32.2034 16.4776 32.1414C16.5405 32.0793 16.5905 32.0054 16.6246 31.9239C16.6587 31.8424 16.6762 31.755 16.6762 31.6666C16.6762 31.5783 16.6587 31.4908 16.6246 31.4093C16.5905 31.3278 16.5405 31.2539 16.4776 31.1918C16.4147 31.1298 16.3401 31.0809 16.2581 31.048C16.1761 31.015 16.0884 30.9987 16.0001 30.9999H11.3335ZM18.3236 33.3241C18.1469 33.3267 17.9785 33.3994 17.8553 33.5261C17.7321 33.6528 17.6643 33.8232 17.6667 33.9999V38.6665C17.6655 38.7549 17.6818 38.8426 17.7147 38.9245C17.7477 39.0065 17.7966 39.0811 17.8586 39.144C17.9207 39.207 17.9946 39.2569 18.0761 39.291C18.1576 39.3251 18.245 39.3427 18.3334 39.3427C18.4217 39.3427 18.5092 39.3251 18.5907 39.291C18.6722 39.2569 18.7461 39.207 18.8082 39.144C18.8702 39.0811 18.9191 39.0065 18.952 38.9245C18.985 38.8426 19.0013 38.7549 19.0001 38.6665V33.9999C19.0013 33.9108 18.9846 33.8223 18.951 33.7397C18.9175 33.6571 18.8677 33.5821 18.8046 33.5191C18.7415 33.4561 18.6665 33.4064 18.5839 33.3729C18.5013 33.3394 18.4128 33.3228 18.3236 33.3241V33.3241Z" fill="#B7B6C2"/>
</svg>
