<svg width="46" height="53" viewBox="0 0 46 53" fill="none" xmlns="http://www.w3.org/2000/svg">
<path d="M15.5039 16.6343C15.8986 16.5779 16.4624 16.5215 17.2518 16.5215C18.0411 16.5215 18.605 16.6906 18.9997 16.9725C19.3379 17.2545 19.6199 17.7055 19.6199 18.2694C19.6199 18.8332 19.4507 19.2843 19.1124 19.6225C18.6614 20.0172 18.0411 20.2428 17.2518 20.2428C17.0826 20.2428 16.9135 20.2428 16.8007 20.2428V22.2725H15.5039V16.6343ZM16.8007 19.2279C16.9135 19.2279 17.0262 19.2842 17.2518 19.2842C17.9284 19.2842 18.3794 18.946 18.3794 18.3821C18.3794 17.8747 18.0411 17.5364 17.3645 17.5364C17.0826 17.5364 16.9135 17.5364 16.8571 17.5928V19.2279H16.8007Z" fill="#77BC1F"/>
<path d="M20.4119 16.6343C20.8629 16.5779 21.4831 16.5215 22.1597 16.5215C23.231 16.5215 23.964 16.6906 24.4714 17.1417C25.0353 17.5928 25.4299 18.2694 25.4299 19.2842C25.4299 20.3555 25.0353 21.1449 24.4714 21.596C23.8512 22.1034 22.9491 22.3289 21.8214 22.3289C21.1448 22.3289 20.6938 22.2725 20.3555 22.2725V16.6343H20.4119ZM21.7087 21.2577C21.8214 21.2577 21.9906 21.2577 22.1597 21.2577C23.3438 21.2577 24.0767 20.6374 24.0767 19.2842C24.0767 18.1002 23.4002 17.48 22.2725 17.48C21.9906 17.48 21.8214 17.48 21.7087 17.5364V21.2577Z" fill="#77BC1F"/>
<path d="M26.2734 16.5215H29.7692V17.5928H27.5702V18.8896H29.6V19.9608H27.5702V22.2725H26.2734V16.5215Z" fill="#77BC1F"/>
<path d="M44.2043 12.9681L32.0819 0.845745C31.5181 0.281915 30.7851 0 29.9957 0H3.38298C1.52234 0 0 1.52234 0 3.38298V49.617C0 51.4777 1.52234 53 3.38298 53H41.7234C43.584 53 45.1064 51.4777 45.1064 49.617V15.2234C45.1064 14.3777 44.7681 13.5319 44.2043 12.9681ZM22.5532 45.3319L16.0691 38.8479H19.3957V28.3606H25.767V38.8479H29.0936L22.5532 45.3319ZM37.7202 23.5681C37.7202 24.2447 37.1564 24.7521 36.5362 24.7521H8.6266C7.95 24.7521 7.44255 24.1883 7.44255 23.5681V15.9564C7.44255 15.2798 8.00638 14.7723 8.6266 14.7723H36.5362C37.2128 14.7723 37.7202 15.3362 37.7202 15.9564V23.5681Z" fill="#77BC1F"/>
</svg>
