<svg width="45" height="57" viewBox="0 0 45 57" fill="none" xmlns="http://www.w3.org/2000/svg">
<circle cx="22.5" cy="22.5" r="12.5" fill="#77BC1F"/>
<path d="M22.5 1.25C10.7771 1.25 1.25 10.7771 1.25 22.5C1.25 29.6542 5.39375 35.6396 10.2104 39.8188C11.7333 41.1292 14.3896 43.2188 16.7625 46.3C19.3833 49.7354 21.7563 53.4188 22.5 55.8979C23.2437 53.4188 25.6167 49.7354 28.2375 46.3C30.6104 43.2188 33.2667 41.1292 34.7896 39.8188C39.6063 35.6396 43.75 29.6542 43.75 22.5C43.75 10.7771 34.2229 1.25 22.5 1.25ZM22.5 10.3167C24.0999 10.3167 25.6842 10.6318 27.1624 11.2441C28.6405 11.8563 29.9836 12.7538 31.1149 13.8851C32.2462 15.0164 33.1437 16.3595 33.7559 17.8376C34.3682 19.3158 34.6833 20.9001 34.6833 22.5C34.6833 24.0999 34.3682 25.6842 33.7559 27.1624C33.1437 28.6405 32.2462 29.9836 31.1149 31.1149C29.9836 32.2463 28.6405 33.1437 27.1624 33.7559C25.6842 34.3682 24.0999 34.6833 22.5 34.6833C19.2688 34.6833 16.1699 33.3997 13.8851 31.1149C11.6003 28.8301 10.3167 25.7312 10.3167 22.5C10.3167 19.2688 11.6003 16.1699 13.8851 13.8851C16.1699 11.6003 19.2688 10.3167 22.5 10.3167Z" fill="#77BC1F"/>
<path d="M28.9723 12.5H16.0277L10 23.125L16.0277 33.75H28.9723L35 23.125L28.9723 12.5Z" stroke="white" stroke-width="3.69898"/>
</svg>
