<?xml version="1.0" encoding="utf-8"?><svg xmlns="http://www.w3.org/2000/svg" xmlns:xlink="http://www.w3.org/1999/xlink"><symbol viewBox="0 0 7 11" id="arrow" xmlns="http://www.w3.org/2000/svg"><path d="M.001 9.429L3.93 5.5 0 1.571.787 0l5.5 5.5-5.5 5.5L0 9.429z"/></symbol><symbol viewBox="0 0 20 16" id="arrow-r" xmlns="http://www.w3.org/2000/svg"><path d="M11.971 3.123l3.585 3.582H1.298a1.298 1.298 0 100 2.597h14.255l-3.581 3.575a1.299 1.299 0 001.834 1.837l5.803-5.791v-.001c.06-.06.114-.125.161-.196.014-.02.023-.042.035-.064.03-.052.061-.102.084-.158.013-.03.02-.063.03-.095.016-.049.035-.097.046-.149a1.312 1.312 0 000-.513c-.012-.057-.032-.111-.05-.164-.01-.026-.014-.054-.025-.078a1.19 1.19 0 00-.091-.171c-.01-.017-.018-.036-.029-.052a1.319 1.319 0 00-.162-.198l-5.801-5.798a1.298 1.298 0 10-1.836 1.837z"/></symbol><symbol viewBox="0 0 31 16" id="arrow1" xmlns="http://www.w3.org/2000/svg"><path d="M1.23 7.293a1 1 0 000 1.414l6.364 6.364a1 1 0 001.415-1.414L3.352 8l5.657-5.657A1 1 0 107.594.93L1.23 7.293zM30.062 7H1.938v2h28.125V7z"/></symbol><symbol viewBox="0 0 35 35" id="back" xmlns="http://www.w3.org/2000/svg"><path d="M21.875 12.031V9.297a2.734 2.734 0 00-2.734-2.735H6.016A2.734 2.734 0 003.28 9.297v16.406a2.734 2.734 0 002.735 2.735H19.14a2.734 2.734 0 002.734-2.735V22.97m4.376-10.939l5.469 5.469-5.469 5.469M13.057 17.5h18.662" opacity=".8" stroke-width="2.188" stroke-linecap="round" stroke-linejoin="round"/></symbol><symbol viewBox="0 0 19 19" id="close" xmlns="http://www.w3.org/2000/svg"><path d="M16.928.629l1.443 1.443-16.3 16.3L.63 16.93 16.929.629z"/><path d="M2.071.629l16.3 16.3-1.442 1.443-16.3-16.3L2.07.63z"/></symbol><symbol viewBox="0 0 17 17" id="closed" xmlns="http://www.w3.org/2000/svg"><g clip-path="url(#afa)"><path d="M15.211 4.473a.708.708 0 00-.329.946A7.091 7.091 0 018.5 15.583 7.091 7.091 0 011.417 8.5 7.091 7.091 0 018.5 1.417c1.618 0 3.139.528 4.397 1.528a.708.708 0 10.882-1.109A8.514 8.514 0 008.5 0C3.813 0 0 3.813 0 8.5 0 13.187 3.813 17 8.5 17c4.687 0 8.5-3.813 8.5-8.5a8.413 8.413 0 00-.843-3.698.708.708 0 00-.946-.329z"/><path d="M8.5 2.834a.709.709 0 00-.708.708v4.959c0 .39.317.708.708.708h3.542a.709.709 0 000-1.417H9.209v-4.25a.709.709 0 00-.709-.708z"/></g><defs><clipPath id="afa"><path d="M0 0h17v17H0z"/></clipPath></defs></symbol><symbol viewBox="0 0 20 20" id="download" xmlns="http://www.w3.org/2000/svg"><path d="M10 0a10 10 0 100 20 10 10 0 000-20zM8.884 3.337h2.232V8.85h2.015L10 12.37 6.87 8.85h2.014V3.337zM5.195 13.75h9.61v2.11h-9.61v-2.11z"/></symbol><symbol viewBox="0 0 22 18" id="envelope" xmlns="http://www.w3.org/2000/svg"><path d="M20.75.75H1.25a.75.75 0 00-.75.75v15c0 .415.335.75.75.75h19.5a.75.75 0 00.75-.75v-15a.75.75 0 00-.75-.75zm-.938 2.597v12.216H2.188V3.347l-.646-.504.92-1.184 1.004.78h15.073l1.003-.78.92 1.184-.648.504zm-1.274-.91L11 8.297l-7.537-5.86-1.004-.78-.92 1.184.646.504 8.006 6.225a1.312 1.312 0 001.61 0l8.011-6.223.647-.504-.92-1.184-1.002.778z"/></symbol><symbol viewBox="0 0 7 13" id="fb" xmlns="http://www.w3.org/2000/svg"><path d="M6.55.434L4.975.432c-1.772 0-2.917 1.174-2.917 2.992v1.38H.472a.248.248 0 00-.248.248v2c0 .136.111.247.248.247h1.585v5.045c0 .137.111.248.248.248h2.069a.248.248 0 00.248-.248V7.299h1.854c.137 0 .248-.11.248-.248V5.052a.248.248 0 00-.248-.248H4.622v-1.17c0-.562.134-.847.866-.847H6.55a.248.248 0 00.248-.248V.681a.248.248 0 00-.247-.248z"/></symbol><symbol viewBox="0 0 14 15" id="gg" xmlns="http://www.w3.org/2000/svg"><path d="M11.875 6.75H7.108v1.959H9.83a2.325 2.325 0 01-1.01 1.528c-.455.303-1.034.483-1.715.483-1.318 0-2.433-.891-2.831-2.088a3.069 3.069 0 01-.159-.962c0-.334.058-.658.159-.962.4-1.195 1.514-2.086 2.833-2.086.742 0 1.409.256 1.934.758l1.451-1.453c-.877-.818-2.021-1.32-3.385-1.32a5.058 5.058 0 00-5.06 5.065 5.058 5.058 0 005.06 5.063c1.367 0 2.512-.454 3.348-1.228.957-.881 1.51-2.18 1.51-3.722 0-.359-.032-.703-.091-1.036z"/></symbol><symbol viewBox="0 0 29 21" id="hamb" xmlns="http://www.w3.org/2000/svg"><path d="M2.125 10.5h24.75M2.125 2.25h24.75m-24.75 16.5h24.75"/></symbol><symbol viewBox="0 0 15 14" id="home" xmlns="http://www.w3.org/2000/svg"><path d="M13.872 6.578L7.436.146a.499.499 0 00-.706 0L.294 6.578A1 1 0 001 8.286h.678v4.589a.5.5 0 00.5.5h3.905v-3.5h1.75v3.5h4.154a.5.5 0 00.5-.5v-4.59h.679a1.001 1.001 0 00.706-1.708z"/></symbol><symbol viewBox="0 0 17 18" id="info" xmlns="http://www.w3.org/2000/svg"><path d="M8.5 15.8a6.8 6.8 0 100-13.6 6.8 6.8 0 000 13.6zm0 1.7a8.5 8.5 0 110-17 8.5 8.5 0 110 17zm-.85-9.35v5.1h1.7v-5.1h-1.7zm0-3.4h1.7v1.7h-1.7v-1.7z"/></symbol><symbol viewBox="0 0 12 12" id="ins" xmlns="http://www.w3.org/2000/svg"><path d="M5.836 3.935c-1.054 0-1.915.86-1.915 1.915a1.92 1.92 0 001.915 1.915c1.055 0 1.915-.86 1.915-1.915 0-1.055-.86-1.915-1.915-1.915zM11.58 5.85c0-.793.007-1.579-.038-2.37-.044-.92-.254-1.736-.926-2.408C9.942.398 9.128.19 8.208.145 7.415.101 6.63.108 5.838.108c-.793 0-1.579-.007-2.37.037-.92.045-1.736.254-2.408.927C.386 1.746.178 2.56.133 3.479.09 4.272.096 5.06.096 5.85c0 .792-.007 1.58.037 2.371.045.92.255 1.735.927 2.408.674.674 1.488.882 2.408.926.793.045 1.578.038 2.37.038.793 0 1.579.007 2.37-.038.92-.044 1.735-.254 2.408-.926.674-.674.882-1.488.926-2.408.046-.791.038-1.577.038-2.37zM5.836 8.796A2.942 2.942 0 012.89 5.85a2.942 2.942 0 012.946-2.947A2.942 2.942 0 018.783 5.85a2.942 2.942 0 01-2.947 2.946zm3.067-5.325a.687.687 0 11-.001-1.375.687.687 0 01.001 1.375z"/></symbol><symbol viewBox="0 0 512 512" id="interface" xmlns="http://www.w3.org/2000/svg"><path d="M472.178 133.907h-54.303V35.132c0-9.425-7.641-17.067-17.067-17.067H111.192c-9.425 0-17.067 7.641-17.067 17.067v98.775H39.822C17.864 133.907 0 151.772 0 173.73v171.702c0 21.958 17.864 39.822 39.822 39.822h54.306v91.614c0 9.425 7.641 17.067 17.067 17.067h289.61c9.425 0 17.067-7.641 17.067-17.067v-91.614h54.306c21.958 0 39.822-17.864 39.822-39.822V173.73c0-21.957-17.864-39.823-39.822-39.823zm-343.92-81.708h255.483v81.708H128.258V52.199zm255.48 407.602H128.262V320.173h255.477l-.001 139.628zm94.129-114.368a5.695 5.695 0 01-5.689 5.689h-54.306v-48.014c0-9.425-7.641-17.067-17.067-17.067h-289.61c-9.425 0-17.067 7.641-17.067 17.067v48.014H39.822a5.695 5.695 0 01-5.689-5.689V173.731a5.695 5.695 0 015.689-5.689h432.356a5.695 5.695 0 015.689 5.689v171.702z"/><path d="M400.808 199.988h-43.443c-9.425 0-17.067 7.641-17.067 17.067s7.641 17.067 17.067 17.067h43.443c9.425 0 17.067-7.641 17.067-17.067s-7.641-17.067-17.067-17.067zm-70.852 199.846H182.044c-9.425 0-17.067 7.641-17.067 17.067s7.641 17.067 17.067 17.067h147.911c9.425 0 17.067-7.641 17.067-17.067s-7.641-17.067-17.066-17.067zm0-53.828H182.044c-9.425 0-17.067 7.641-17.067 17.067s7.641 17.067 17.067 17.067h147.911c9.425 0 17.067-7.641 17.067-17.067s-7.641-17.067-17.066-17.067z"/></symbol><symbol viewBox="0 0 23 23" id="lang" xmlns="http://www.w3.org/2000/svg"><path d="M11.34.7C5.38.7.551 5.537.551 11.5c0 5.96 4.828 10.8 10.79 10.8 5.972 0 10.81-4.84 10.81-10.8 0-5.962-4.838-10.8-10.81-10.8zm7.485 6.48h-3.186a16.9 16.9 0 00-1.49-3.846 8.672 8.672 0 014.676 3.845zM11.35 2.901a15.214 15.214 0 012.063 4.277H9.288a15.214 15.214 0 012.063-4.277zM2.991 13.66a8.901 8.901 0 01-.28-2.16 8.9 8.9 0 01.28-2.16h3.651a17.836 17.836 0 00-.151 2.16c0 .735.065 1.447.151 2.16h-3.65zm.886 2.16h3.186a16.97 16.97 0 001.49 3.845 8.626 8.626 0 01-4.676-3.845zm3.186-8.64H3.877a8.626 8.626 0 014.677-3.845 16.902 16.902 0 00-1.49 3.845zm4.288 12.917a15.214 15.214 0 01-2.063-4.277h4.126a15.214 15.214 0 01-2.063 4.277zm2.527-6.437H8.824c-.097-.713-.173-1.425-.173-2.16 0-.734.076-1.458.173-2.16h5.054c.097.702.173 1.426.173 2.16 0 .735-.076 1.447-.173 2.16zm.27 6.005a16.901 16.901 0 001.49-3.845h3.187a8.672 8.672 0 01-4.677 3.845zm1.912-6.005c.086-.713.151-1.425.151-2.16 0-.734-.065-1.447-.151-2.16h3.65a8.9 8.9 0 01.281 2.16 8.94 8.94 0 01-.28 2.16H16.06z"/></symbol><symbol viewBox="0 0 469.333 469.333" id="left" xmlns="http://www.w3.org/2000/svg"><path d="M448 0H21.333C9.552 0 0 9.552 0 21.333V448c0 11.781 9.552 21.333 21.333 21.333H448c11.781 0 21.333-9.552 21.333-21.333V21.333C469.333 9.552 459.781 0 448 0zM138.667 426.667h-96v-384h96v384zm288 0H181.333v-384h245.333v384z"/></symbol><symbol viewBox="0 0 27 19" id="left_arr" xmlns="http://www.w3.org/2000/svg"><path d="M10.57 15.694l-4.725-4.697h18.794c.945 0 1.711-.762 1.711-1.702s-.766-1.703-1.711-1.703H5.849l4.72-4.686c.67-.664.67-1.742.003-2.407a1.719 1.719 0 00-2.42-.002L.502 8.089v.002a1.63 1.63 0 00-.212.256c-.018.027-.03.056-.046.084-.04.068-.08.134-.111.208-.017.04-.025.082-.04.124-.02.064-.045.128-.06.195a1.72 1.72 0 000 .673c.016.075.042.146.067.216.012.034.018.07.032.102.033.079.076.152.12.224.014.022.023.046.038.068.063.093.134.18.213.26l7.648 7.6a1.717 1.717 0 002.42 0 1.696 1.696 0 000-2.407z"/></symbol><symbol viewBox="0 0 15 15" id="lk" xmlns="http://www.w3.org/2000/svg"><path d="M4.112 2.783c0 .717-.48 1.335-1.352 1.335-.82 0-1.35-.583-1.35-1.3 0-.736.513-1.386 1.35-1.386.838 0 1.336.614 1.352 1.35zM1.409 13.592V4.809h2.703v8.783H1.409zm4.053-5.781a55.57 55.57 0 00-.069-2.669h2.428l.12 1.164h.052c.342-.548 1.18-1.35 2.582-1.35 1.71 0 2.994 1.144 2.994 3.608v5.028h-2.702V8.956c0-1.076-.41-1.898-1.351-1.898-.718 0-1.077.581-1.266 1.06-.069.172-.085.41-.085.65v4.824H5.462v-5.78z"/></symbol><symbol viewBox="0 0 17 22" id="loc" xmlns="http://www.w3.org/2000/svg"><path d="M8.5.7C4.03.7.4 4.33.4 8.8c0 2.726 1.58 5.008 3.415 6.6.58.5 1.593 1.297 2.498 2.471.999 1.31 1.903 2.714 2.187 3.659.283-.945 1.188-2.35 2.187-3.659.904-1.174 1.917-1.97 2.497-2.47 1.836-1.593 3.416-3.875 3.416-6.602 0-4.468-3.632-8.1-8.1-8.1zm0 3.455a4.644 4.644 0 110 9.288 4.644 4.644 0 010-9.288z"/></symbol><symbol viewBox="0 0 512 512" id="multimedia" xmlns="http://www.w3.org/2000/svg"><path d="M506.141 477.851L361.689 333.399c65.814-80.075 61.336-198.944-13.451-273.73-79.559-79.559-209.01-79.559-288.569 0s-79.559 209.01 0 288.569c74.766 74.766 193.62 79.293 273.73 13.451l144.452 144.452c7.812 7.812 20.477 7.812 28.289 0 7.813-7.813 7.813-20.478.001-28.29zM319.949 319.948c-63.96 63.96-168.03 63.959-231.99 0-63.96-63.96-63.96-168.03 0-231.99 63.958-63.957 168.028-63.962 231.99 0 63.96 63.96 63.96 168.03 0 231.99z"/><path d="M301.897 183.949h-77.94v-77.94c0-11.048-8.956-20.004-20.004-20.004-11.048 0-20.004 8.956-20.004 20.004v77.94h-77.94c-11.048 0-20.004 8.956-20.004 20.004 0 11.048 8.956 20.004 20.004 20.004h77.94v77.94c0 11.048 8.956 20.004 20.004 20.004 11.048 0 20.004-8.956 20.004-20.004v-77.94h77.94c11.048 0 20.004-8.956 20.004-20.004 0-11.048-8.956-20.004-20.004-20.004z"/></symbol><symbol viewBox="0 0 512 512" id="multimedia-option" xmlns="http://www.w3.org/2000/svg"><path d="M382.56 233.376A15.96 15.96 0 00368 224h-64V16c0-8.832-7.168-16-16-16h-64c-8.832 0-16 7.168-16 16v208h-64a16.013 16.013 0 00-14.56 9.376c-2.624 5.728-1.6 12.416 2.528 17.152l112 128A15.946 15.946 0 00256 384c4.608 0 8.992-2.016 12.032-5.472l112-128c4.16-4.704 5.12-11.424 2.528-17.152z"/><path d="M432 352v96H80v-96H16v128c0 17.696 14.336 32 32 32h416c17.696 0 32-14.304 32-32V352h-64z"/></symbol><symbol viewBox="0 0 17 17" id="open" xmlns="http://www.w3.org/2000/svg"><g clip-path="url(#awa)"><path d="M15.211 4.473a.708.708 0 00-.329.946A7.091 7.091 0 018.5 15.583 7.091 7.091 0 011.417 8.5 7.091 7.091 0 018.5 1.417c1.618 0 3.139.528 4.397 1.528a.708.708 0 10.882-1.109A8.514 8.514 0 008.5 0C3.813 0 0 3.813 0 8.5 0 13.187 3.813 17 8.5 17c4.687 0 8.5-3.813 8.5-8.5a8.413 8.413 0 00-.843-3.698.708.708 0 00-.946-.329z"/><path d="M8.5 2.834a.709.709 0 00-.708.708v4.959c0 .39.317.708.708.708h3.542a.709.709 0 000-1.417H9.209v-4.25a.709.709 0 00-.709-.708z"/></g><defs><clipPath id="awa"><path d="M0 0h17v17H0z"/></clipPath></defs></symbol><symbol viewBox="0 0 26 20" id="pdf" xmlns="http://www.w3.org/2000/svg"><path d="M24.375.402h-6.256a6.985 6.985 0 00-3.785 1.113L13 2.371l-1.334-.856A6.978 6.978 0 007.88.402H1.625a.874.874 0 00-.875.875V16.81c0 .484.391.875.875.875h6.256c1.343 0 2.655.385 3.785 1.113l1.214.781a.227.227 0 00.117.036.205.205 0 00.118-.036l1.214-.781a7.01 7.01 0 013.79-1.113h6.256a.874.874 0 00.875-.875V1.277a.874.874 0 00-.875-.875zM7.881 15.715H2.72V2.37h5.16a5.02 5.02 0 012.721.799l1.334.855.189.123V16.78a8.949 8.949 0 00-4.244-1.066zm15.4 0H18.12a8.949 8.949 0 00-4.244 1.066V4.148l.189-.123 1.334-.855a5.02 5.02 0 012.72-.799h5.163v13.344zM9.853 5.87h-5.08a.201.201 0 00-.195.205v1.23c0 .113.088.206.194.206H9.85c.107 0 .194-.093.194-.205v-1.23a.197.197 0 00-.191-.206zm6.1.205v1.23c0 .113.088.206.194.206h5.078c.107 0 .194-.093.194-.205v-1.23c0-.113-.087-.206-.194-.206h-5.078c-.106 0-.194.093-.194.205zM9.853 9.7h-5.08a.201.201 0 00-.195.205v1.23c0 .113.088.206.194.206H9.85c.107 0 .194-.093.194-.205v-1.23a.197.197 0 00-.191-.206zm11.375 0h-5.08a.201.201 0 00-.195.205v1.23c0 .113.088.206.194.206h5.078c.107 0 .194-.093.194-.205v-1.23a.197.197 0 00-.191-.206z"/></symbol><symbol viewBox="0 0 21 21" id="phone" xmlns="http://www.w3.org/2000/svg"><path d="M19.25 14.801v2.625a1.752 1.752 0 01-1.908 1.75 17.316 17.316 0 01-7.551-2.686 17.062 17.062 0 01-5.25-5.25 17.316 17.316 0 01-2.686-7.586 1.75 1.75 0 011.741-1.908h2.625a1.75 1.75 0 011.75 1.505c.11.84.316 1.665.613 2.459a1.75 1.75 0 01-.394 1.846L7.079 8.667a14 14 0 005.25 5.25l1.11-1.11a1.75 1.75 0 011.847-.395 11.21 11.21 0 002.459.613A1.75 1.75 0 0119.25 14.8z"/></symbol><symbol viewBox="0 0 27 25" id="print" xmlns="http://www.w3.org/2000/svg"><path d="M22.54 7.333H4.457a3.87 3.87 0 00-3.875 3.875v7.75h5.167v5.167h15.5v-5.167h5.166v-7.75a3.87 3.87 0 00-3.875-3.875zm-3.875 14.209H8.332v-6.459h10.333v6.459zM22.54 12.5c-.71 0-1.291-.581-1.291-1.292 0-.71.58-1.291 1.291-1.291.71 0 1.292.58 1.292 1.291 0 .71-.581 1.292-1.292 1.292zM21.25.875H5.75v5.167h15.5V.875z"/></symbol><symbol viewBox="0 0 15 15" id="pt" xmlns="http://www.w3.org/2000/svg"><g clip-path="url(#baa)"><path d="M7.793 1.816c-2.407 0-4.785 1.605-4.785 4.202 0 1.651.929 2.59 1.492 2.59.232 0 .366-.648.366-.831 0-.218-.556-.683-.556-1.59 0-1.886 1.435-3.224 3.293-3.224 1.598 0 2.78.908 2.78 2.576 0 1.246-.5 3.582-2.118 3.582-.584 0-1.084-.422-1.084-1.027 0-.887.62-1.746.62-2.66 0-1.553-2.203-1.272-2.203.605 0 .394.049.83.225 1.189-.324 1.393-.986 3.47-.986 4.905 0 .443.064.88.106 1.323.08.09.04.08.162.035 1.182-1.618 1.14-1.935 1.675-4.053.288.549 1.034.844 1.625.844 2.492 0 3.61-2.428 3.61-4.616 0-2.33-2.012-3.85-4.222-3.85z"/></g><defs><clipPath id="baa"><path d="M3.008 1.662h9.008v12.01H3.008z"/></clipPath></defs></symbol><symbol viewBox="0 0 40 24" id="repost" xmlns="http://www.w3.org/2000/svg"><path d="M33.42 2.417A1.917 1.917 0 0031.502.5H16.169v3.833h13.417v9.584h-5.75l7.607 9.583 7.726-9.583h-5.75v-11.5zM6.585 21.583A1.916 1.916 0 008.503 23.5h15.333v-3.833H10.419v-9.584h5.75L8.503.5.836 10.083h5.75v11.5z"/></symbol><symbol viewBox="0 0 27 19" id="right_arr" xmlns="http://www.w3.org/2000/svg"><path d="M16.43 3.306l4.726 4.697H2.362c-.946 0-1.712.762-1.712 1.702s.766 1.703 1.712 1.703h18.79l-4.72 4.686a1.696 1.696 0 00-.004 2.407 1.719 1.719 0 002.42.002l7.65-7.592v-.002c.08-.078.15-.163.212-.257.019-.026.03-.055.047-.083.04-.068.08-.134.11-.208.018-.04.026-.082.04-.124.02-.064.046-.128.06-.195a1.712 1.712 0 000-.673c-.015-.075-.042-.146-.067-.216-.011-.034-.017-.07-.032-.102a1.57 1.57 0 00-.12-.224c-.014-.022-.023-.046-.037-.068a1.728 1.728 0 00-.214-.26L18.85.9a1.717 1.717 0 00-2.42 0 1.696 1.696 0 000 2.407z"/></symbol><symbol viewBox="0 0 15 15" id="route" xmlns="http://www.w3.org/2000/svg"><path d="M14.951 4.509L11.84.105a.26.26 0 00-.419 0L8.325 4.509a.255.255 0 00.21.403h1.551v.776a3.579 3.579 0 01-1.22 2.693l-.636.556c-.263.23-.507.48-.73.75a6.647 6.647 0 00-.729-.75l-.636-.556a3.579 3.579 0 01-1.22-2.693v-.776h1.55a.255.255 0 00.21-.403L3.565.105a.259.259 0 00-.42 0L.05 4.509a.255.255 0 00.21.403h1.552v.776c0 1.927.83 3.76 2.28 5.028l.637.556c.776.68 1.22 1.66 1.22 2.692v.776a.26.26 0 00.26.259h2.585a.259.259 0 00.26-.259v-.776a3.575 3.575 0 011.22-2.692l.636-.556a6.678 6.678 0 002.281-5.028v-.776h1.552a.255.255 0 00.21-.403z"/></symbol><symbol viewBox="0 0 18 19" id="send" xmlns="http://www.w3.org/2000/svg"><g clip-path="url(#bea)"><path d="M17.55 1.715c-.214-.215-.536-.28-.857-.172l-14.7 5.893a.817.817 0 00-.514.75c0 .343.235.643.535.729l6.215 2.142 2.142 6.215c.107.3.365.493.686.535h.043a.817.817 0 00.75-.514l5.893-14.721c.128-.3.043-.622-.193-.857zm-6.214 7.35a.778.778 0 000-1.115c-.3-.3-.815-.3-1.115 0L8.657 9.515 4.586 8.122 15.6 3.707 11.164 14.7l-1.393-4.093 1.565-1.542z"/></g><defs><clipPath id="bea"><path d="M0 .5h17.786v18H0z"/></clipPath></defs></symbol><symbol viewBox="0 0 11 13" id="tg" xmlns="http://www.w3.org/2000/svg"><g clip-path="url(#bfa)"><path d="M10.873 2.93L9.242 10.5c-.123.535-.444.668-.9.416L5.857 9.114l-1.2 1.135c-.132.131-.243.24-.499.24l.179-2.491L8.943 3.9c.2-.176-.044-.273-.311-.098l-5.695 3.53-2.45-.755c-.534-.164-.544-.525.11-.777l9.588-3.636c.444-.164.833.097.688.764z"/></g><defs><clipPath id="bfa"><path d="M.096.588h10.809v12.16H.096z"/></clipPath></defs></symbol><symbol viewBox="0 0 13 11" id="tw" xmlns="http://www.w3.org/2000/svg"><path d="M12.086 1.743a4.503 4.503 0 01-1.353.393 2.485 2.485 0 001.036-1.38c-.457.286-.96.494-1.498.606A2.29 2.29 0 008.553.574c-1.301 0-2.356 1.117-2.356 2.494 0 .195.02.386.06.569C4.3 3.532 2.564 2.539 1.402 1.03a2.588 2.588 0 00-.318 1.254c0 .865.416 1.63 1.047 2.076a2.258 2.258 0 01-1.067-.313v.031c0 1.208.813 2.217 1.89 2.446a2.262 2.262 0 01-.62.087c-.153 0-.3-.016-.444-.046.3.992 1.17 1.713 2.2 1.733A4.563 4.563 0 01.6 9.33a6.394 6.394 0 003.611 1.122c4.334 0 6.703-3.801 6.703-7.097l-.008-.323c.463-.35.864-.79 1.179-1.29z"/></symbol><symbol viewBox="0 0 57 41" id="yt" xmlns="http://www.w3.org/2000/svg"><path d="M55.75 6.795a7.13 7.13 0 00-5.027-5.033C46.286.568 28.5.568 28.5.568s-17.786 0-22.223 1.187A7.117 7.117 0 001.25 6.79C.062 11.232.062 20.5.062 20.5s0 9.268 1.188 13.705a7.128 7.128 0 005.027 5.033c4.437 1.194 22.223 1.194 22.223 1.194s17.786 0 22.223-1.194a7.117 7.117 0 005.028-5.033c1.187-4.437 1.187-13.705 1.187-13.705s0-9.268-1.188-13.705zm-32.9 22.21v-17.01l14.727 8.441-14.726 8.57z"/></symbol><symbol viewBox="0 0 15 15" id="yt1" xmlns="http://www.w3.org/2000/svg"><g clip-path="url(#bia)"><path d="M11.688 2.33v4.441h-.908v-.496c-.35.368-.7.553-1.05.553-.426 0-.639-.265-.639-.795V2.331H10v3.405c0 .198.08.297.242.297.16 0 .34-.113.539-.34V2.33h.908zM8.325 3.367v2.299c0 .397-.118.7-.354.908-.237.208-.558.312-.965.312-.388 0-.702-.111-.943-.334-.242-.222-.362-.522-.362-.9V3.351c0-.369.13-.65.39-.844.26-.194.58-.29.957-.29.36 0 .663.103.908.311.246.208.37.487.37.837zm-.922 2.37V3.31a.278.278 0 00-.127-.235.453.453 0 00-.27-.092.394.394 0 00-.255.092.289.289 0 00-.114.235v2.425c0 .246.123.37.369.37.265 0 .397-.124.397-.37zM4.708.755h1.035l-.78 2.34a8.845 8.845 0 01-.142.39c-.057.147-.106.28-.149.398a2.738 2.738 0 00-.106.39V6.77H3.544V4.388c-.019-.114-.156-.516-.411-1.206L2.324.756H3.36l.652 2.397h.071L4.708.756zm8.668 10.484c0 .463-.028 1.15-.085 2.057-.038.473-.22.849-.546 1.128-.327.28-.726.428-1.2.447-.936.047-2.34.07-4.213.07-1.882 0-3.286-.023-4.213-.07-.473-.019-.873-.168-1.2-.447-.325-.279-.507-.655-.545-1.128a35.906 35.906 0 01-.085-2.057c0-.463.028-1.15.085-2.057.038-.473.22-.849.546-1.128.326-.279.726-.428 1.199-.447.927-.047 2.331-.07 4.213-.07 1.882 0 3.287.023 4.214.07.473.02.872.168 1.199.447.326.28.508.655.546 1.128.056.908.085 1.594.085 2.057zm-1.007 1.291v-.27h-.752c0 .02.002.08.007.185.005.104.005.177 0 .22a1.036 1.036 0 01-.036.163.23.23 0 01-.099.142.387.387 0 01-.199.042.283.283 0 01-.22-.085.291.291 0 01-.085-.17 3.122 3.122 0 01-.007-.241v-.681h1.39v-.908c0-.331-.09-.591-.269-.78-.18-.19-.435-.284-.766-.284a1.15 1.15 0 00-.802.29c-.212.195-.319.452-.319.774v1.603c0 .34.092.612.277.816.184.203.447.305.787.305.729 0 1.093-.374 1.093-1.12zm-2.71.27v-1.986c0-.596-.237-.894-.71-.894-.236 0-.453.108-.652.326v-1.56h-.738v4.866h.738v-.284c.208.217.44.326.695.326.445 0 .667-.265.667-.794zm-3.547.752h.724v-3.59h-.724v2.724c-.16.18-.307.27-.44.27-.123 0-.184-.08-.184-.242V9.963H4.75v3.022c0 .416.17.624.51.624.285 0 .568-.151.852-.454v.398zM3.9 9.396h.865v-.71h-2.54v.71h.852v4.157H3.9V9.396zm7.718 1.49v.397h-.639v-.398c0-.255.11-.383.327-.383.208 0 .312.128.312.383zm-2.71-.043v1.887c0 .198-.085.298-.255.298a.489.489 0 01-.355-.156V10.63a.434.434 0 01.312-.142c.199 0 .298.118.298.355z"/></g><defs><clipPath id="bia"><path d="M.239.756h14.187v14.187H.239z"/></clipPath></defs></symbol><symbol viewBox="0 0 73 51" id="yt2" xmlns="http://www.w3.org/2000/svg"><circle cx="37.136" cy="23.585" r="14.046"/><path d="M71.297 7.998a9.102 9.102 0 00-6.42-6.427C59.212.047 36.5.047 36.5.047s-22.712 0-28.377 1.516a9.088 9.088 0 00-6.42 6.427C.187 13.664.187 25.498.187 25.498s0 11.834 1.516 17.5a9.102 9.102 0 006.42 6.427C13.789 50.95 36.5 50.95 36.5 50.95s22.712 0 28.377-1.524a9.088 9.088 0 006.42-6.427c1.516-5.666 1.516-17.5 1.516-17.5s0-11.834-1.516-17.5zM29.287 36.36V14.637l18.804 10.78-18.805 10.942z"/></symbol><symbol viewBox="0 0 512 512" id="zoom" xmlns="http://www.w3.org/2000/svg"><path d="M506.142 477.851L361.69 333.399c65.813-80.075 61.335-198.944-13.451-273.73h-.001c-79.558-79.559-209.011-79.558-288.569 0-79.559 79.559-79.559 209.01 0 288.569 74.766 74.766 193.62 79.293 273.731 13.451l144.452 144.452c7.814 7.813 20.478 7.811 28.29 0 7.811-7.812 7.811-20.478 0-28.29zM319.949 319.948c-63.959 63.96-168.031 63.959-231.99 0-63.96-63.96-63.96-168.03 0-231.99 63.958-63.958 168.029-63.961 231.99 0 63.96 63.96 63.96 168.03 0 231.99z"/><path d="M301.897 183.95H106.01c-11.048 0-20.004 8.956-20.004 20.004 0 11.048 8.956 20.004 20.004 20.004h195.887c11.048 0 20.004-8.956 20.004-20.004 0-11.048-8.956-20.004-20.004-20.004z"/></symbol></svg>