<svg width="20" height="16" viewBox="0 0 20 16" fill="none" xmlns="http://www.w3.org/2000/svg">
<path d="M11.9713 3.12264L15.5562 6.70542L1.2983 6.70542C0.581118 6.70542 0 7.28654 0 8.00372C0 8.7209 0.581118 9.30201 1.2983 9.30201L15.5531 9.30201L11.9719 12.8765C11.4645 13.3828 11.464 14.2054 11.9698 14.7123C12.4772 15.2197 13.2987 15.2207 13.8061 14.7144L19.609 8.92291L19.6095 8.92187C19.6692 8.86215 19.7232 8.79724 19.77 8.72609C19.784 8.70584 19.7928 8.68351 19.8053 8.66221C19.8359 8.61028 19.866 8.55991 19.8894 8.50382C19.9024 8.47318 19.9086 8.44098 19.919 8.40931C19.9351 8.36049 19.9538 8.31167 19.9647 8.26026C19.9813 8.17717 19.9901 8.09096 19.9901 8.00372C19.9901 7.91699 19.9813 7.83026 19.9647 7.74665C19.9533 7.68953 19.933 7.63604 19.9143 7.58255C19.9055 7.55658 19.9008 7.52906 19.8899 7.50465C19.865 7.44441 19.8323 7.38832 19.7985 7.33379C19.7881 7.31666 19.7814 7.29848 19.7705 7.28186C19.7227 7.21072 19.6687 7.14424 19.6084 7.084L13.8066 1.28633C13.2992 0.779471 12.4772 0.779471 11.9708 1.28685C11.464 1.7937 11.4645 2.6163 11.9713 3.12264Z" fill="white"/>
</svg>
