<svg width="7" height="13" viewBox="0 0 7 13" fill="none" xmlns="http://www.w3.org/2000/svg">
<path d="M6.55072 0.434171L4.97382 0.431641C3.20222 0.431641 2.05734 1.60627 2.05734 3.42431V4.80413H0.47183C0.334823 4.80413 0.223877 4.9152 0.223877 5.05221V7.05141C0.223877 7.18842 0.33495 7.29937 0.47183 7.29937H2.05734V12.344C2.05734 12.481 2.16828 12.5919 2.30529 12.5919H4.37392C4.51093 12.5919 4.62188 12.4809 4.62188 12.344V7.29937H6.4757C6.61271 7.29937 6.72366 7.18842 6.72366 7.05141L6.72441 5.05221C6.72441 4.98643 6.69823 4.92343 6.6518 4.87687C6.60537 4.83032 6.54212 4.80413 6.47633 4.80413H4.62188V3.63444C4.62188 3.07224 4.75585 2.78684 5.48819 2.78684L6.55047 2.78646C6.68735 2.78646 6.79829 2.67538 6.79829 2.5385V0.682126C6.79829 0.545371 6.68747 0.434424 6.55072 0.434171Z" fill="white"/>
</svg>
