<svg width="14" height="15" viewBox="0 0 14 15" fill="none" xmlns="http://www.w3.org/2000/svg">
<path d="M11.8748 6.74926H7.10756V8.70869H9.83096C9.71353 9.34204 9.35727 9.87774 8.82024 10.2366C8.36634 10.5401 7.78709 10.7196 7.10624 10.7196C5.78808 10.7196 4.67312 9.82892 4.27464 8.63216C4.17436 8.32868 4.1163 8.00409 4.1163 7.67026C4.1163 7.33643 4.17436 7.01184 4.27464 6.70836C4.67444 5.51291 5.7894 4.62226 7.10756 4.62226C7.85043 4.62226 8.51676 4.87824 9.04191 5.37964L10.4933 3.9269C9.61589 3.10882 8.4719 2.60742 7.10756 2.60742C5.12966 2.60742 3.4183 3.74217 2.58571 5.3968C2.24265 6.08029 2.04736 6.8535 2.04736 7.67158C2.04736 8.48965 2.24265 9.26155 2.58571 9.94504C3.4183 11.5997 5.12966 12.7344 7.10756 12.7344C8.47454 12.7344 9.61984 12.2805 10.4564 11.5073C11.413 10.6259 11.9659 9.32752 11.9659 7.78505C11.9659 7.42615 11.9342 7.08177 11.8748 6.74926Z" fill="white"/>
</svg>
