<svg width="15" height="14" viewBox="0 0 15 14" fill="none" xmlns="http://www.w3.org/2000/svg">
<path d="M13.8718 6.57772L7.4359 0.146472C7.38956 0.10004 7.33452 0.0632039 7.27393 0.0380705C7.21334 0.012937 7.14838 0 7.08278 0C7.01718 0 6.95223 0.012937 6.89163 0.0380705C6.83104 0.0632039 6.776 0.10004 6.72966 0.146472L0.293749 6.57772C0.10625 6.76522 0 7.01991 0 7.28554C0 7.8371 0.448436 8.28554 0.999996 8.28554H1.67812V12.8746C1.67812 13.1512 1.90155 13.3746 2.17812 13.3746H6.08279V9.8746H7.83278V13.3746H11.9874C12.264 13.3746 12.4874 13.1512 12.4874 12.8746V8.28554H13.1656C13.4312 8.28554 13.6859 8.18085 13.8734 7.99179C14.2624 7.60116 14.2624 6.96835 13.8718 6.57772Z" fill="white"/>
</svg>
