<svg width="17" height="18" viewBox="0 0 17 18" fill="none" xmlns="http://www.w3.org/2000/svg">
<path d="M8.5 15.8C10.3035 15.8 12.0331 15.0836 13.3083 13.8083C14.5836 12.5331 15.3 10.8035 15.3 9C15.3 7.19653 14.5836 5.46692 13.3083 4.19167C12.0331 2.91643 10.3035 2.2 8.5 2.2C6.69653 2.2 4.96692 2.91643 3.69167 4.19167C2.41643 5.46692 1.7 7.19653 1.7 9C1.7 10.8035 2.41643 12.5331 3.69167 13.8083C4.96692 15.0836 6.69653 15.8 8.5 15.8ZM8.5 17.5C3.80545 17.5 0 13.6945 0 9C0 4.30545 3.80545 0.5 8.5 0.5C13.1945 0.5 17 4.30545 17 9C17 13.6945 13.1945 17.5 8.5 17.5ZM7.65 8.15V13.25H9.35V8.15H7.65ZM7.65 4.75H9.35V6.45H7.65V4.75Z" fill="#2D9CDB"/>
</svg>
