<svg width="12" height="12" viewBox="0 0 12 12" fill="none" xmlns="http://www.w3.org/2000/svg">
<path d="M5.8364 3.93485C4.78199 3.93485 3.9215 4.79535 3.9215 5.84979C3.9215 6.90422 4.78199 7.76473 5.8364 7.76473C6.89082 7.76473 7.75131 6.90422 7.75131 5.84979C7.75131 4.79535 6.89082 3.93485 5.8364 3.93485ZM11.5797 5.84979C11.5797 5.05681 11.5869 4.27101 11.5423 3.47946C11.4978 2.56006 11.2881 1.74409 10.6158 1.07178C9.94202 0.398035 9.12751 0.189733 8.20812 0.1452C7.41516 0.100666 6.62937 0.107849 5.83784 0.107849C5.04487 0.107849 4.25909 0.100666 3.46756 0.1452C2.54817 0.189733 1.73222 0.399471 1.05992 1.07178C0.386189 1.74553 0.177891 2.56006 0.133358 3.47946C0.0888256 4.27244 0.0960083 5.05824 0.0960083 5.84979C0.0960083 6.64133 0.0888256 7.42857 0.133358 8.22012C0.177891 9.13952 0.387625 9.95548 1.05992 10.6278C1.73366 11.3015 2.54817 11.5098 3.46756 11.5544C4.26052 11.5989 5.04631 11.5917 5.83784 11.5917C6.63081 11.5917 7.41659 11.5989 8.20812 11.5544C9.12751 11.5098 9.94346 11.3001 10.6158 10.6278C11.2895 9.95405 11.4978 9.13952 11.5423 8.22012C11.5883 7.42857 11.5797 6.64277 11.5797 5.84979ZM5.8364 8.79618C4.20594 8.79618 2.89007 7.48029 2.89007 5.84979C2.89007 4.21929 4.20594 2.9034 5.8364 2.9034C7.46687 2.9034 8.78274 4.21929 8.78274 5.84979C8.78274 7.48029 7.46687 8.79618 5.8364 8.79618ZM8.90341 3.47084C8.52273 3.47084 8.21531 3.16342 8.21531 2.78273C8.21531 2.40204 8.52273 2.09461 8.90341 2.09461C9.28409 2.09461 9.59151 2.40204 9.59151 2.78273C9.59162 2.87312 9.5739 2.96265 9.53936 3.04619C9.50482 3.12973 9.45414 3.20563 9.39022 3.26955C9.3263 3.33347 9.2504 3.38415 9.16687 3.41869C9.08333 3.45323 8.9938 3.47095 8.90341 3.47084Z" fill="white"/>
</svg>
