<svg width="23" height="23" viewBox="0 0 23 23" fill="none" xmlns="http://www.w3.org/2000/svg">
<path d="M11.3402 0.699219C5.37863 0.699219 0.551025 5.53762 0.551025 11.4992C0.551025 17.4608 5.37863 22.2992 11.3402 22.2992C17.3126 22.2992 22.151 17.4608 22.151 11.4992C22.151 5.53762 17.3126 0.699219 11.3402 0.699219ZM18.8246 7.17922H15.6386C15.3006 5.84159 14.8001 4.55039 14.1482 3.33442C16.1183 4.01266 17.7783 5.37748 18.8246 7.17922ZM11.351 2.90242C12.2474 4.19842 12.9494 5.63482 13.4138 7.17922H9.28823C9.75263 5.63482 10.4546 4.19842 11.351 2.90242ZM2.99183 13.6592C2.81903 12.968 2.71103 12.2444 2.71103 11.4992C2.71103 10.754 2.81903 10.0304 2.99183 9.33922H6.64223C6.55583 10.052 6.49103 10.7648 6.49103 11.4992C6.49103 12.2336 6.55583 12.9464 6.64223 13.6592H2.99183ZM3.87743 15.8192H7.06343C7.40903 17.1692 7.90583 18.4652 8.55383 19.664C6.58171 18.9895 4.92053 17.6237 3.87743 15.8192ZM7.06343 7.17922H3.87743C4.92053 5.37473 6.58171 4.00895 8.55383 3.33442C7.90197 4.55039 7.40144 5.84159 7.06343 7.17922ZM11.351 20.096C10.4546 18.8 9.75263 17.3636 9.28823 15.8192H13.4138C12.9494 17.3636 12.2474 18.8 11.351 20.096ZM13.8782 13.6592H8.82383C8.72663 12.9464 8.65103 12.2336 8.65103 11.4992C8.65103 10.7648 8.72663 10.0412 8.82383 9.33922H13.8782C13.9754 10.0412 14.051 10.7648 14.051 11.4992C14.051 12.2336 13.9754 12.9464 13.8782 13.6592ZM14.1482 19.664C14.7962 18.4652 15.293 17.1692 15.6386 15.8192H18.8246C17.7783 17.621 16.1183 18.9858 14.1482 19.664ZM16.0598 13.6592C16.1462 12.9464 16.211 12.2336 16.211 11.4992C16.211 10.7648 16.1462 10.052 16.0598 9.33922H19.7102C19.883 10.0304 19.991 10.754 19.991 11.4992C19.991 12.2444 19.883 12.968 19.7102 13.6592H16.0598Z" fill="#0A0A0A"/>
</svg>
