<svg width="27" height="19" viewBox="0 0 27 19" fill="none" xmlns="http://www.w3.org/2000/svg">
<path d="M10.5701 15.6938L5.8447 10.9967L24.6387 10.9967C25.5841 10.9967 26.3501 10.2348 26.3501 9.29455C26.3501 8.35429 25.5841 7.59243 24.6387 7.59243L5.84881 7.59243L10.5694 2.90615C11.2382 2.24232 11.2389 1.16386 10.5721 0.499352C9.90334 -0.165838 8.8204 -0.1672 8.1516 0.496626L0.502547 8.08944C0.501862 8.0908 0.501862 8.0908 0.501862 8.0908C0.42314 8.1691 0.351951 8.25421 0.290341 8.34748C0.271859 8.37404 0.26022 8.40331 0.243792 8.43123C0.203404 8.49931 0.163705 8.56535 0.132901 8.63889C0.115786 8.67906 0.107568 8.72127 0.0938767 8.7628C0.0726556 8.8268 0.0480145 8.8908 0.0336388 8.95821C0.0117329 9.06714 0.000100006 9.18016 9.99956e-05 9.29454C9.99956e-05 9.29454 9.99956e-05 9.29454 9.99955e-05 9.29522C9.99856e-05 9.40893 0.0117329 9.52195 0.0336388 9.63156C0.0486992 9.70646 0.0753964 9.77659 0.100039 9.84671C0.111676 9.88076 0.117835 9.91684 0.132211 9.94884C0.165068 10.0278 0.208195 10.1013 0.252692 10.1728C0.266383 10.1953 0.275283 10.2191 0.289656 10.2409C0.352635 10.3342 0.423825 10.4213 0.503232 10.5003L8.15092 18.1013C8.81971 18.7658 9.90334 18.7658 10.5708 18.1006C11.2389 17.4361 11.2382 16.3577 10.5701 15.6938Z" fill="#A69E9E"/>
</svg>
