<svg width="15" height="15" viewBox="0 0 15 15" fill="none" xmlns="http://www.w3.org/2000/svg">
<path d="M4.11171 2.78279C4.11171 3.50024 3.63206 4.11772 2.75989 4.11772C1.93907 4.11772 1.40942 3.53537 1.40942 2.81792C1.40942 2.08154 1.92286 1.43164 2.76057 1.43164C3.59828 1.43164 4.0955 2.04641 4.11171 2.78279ZM1.40942 13.5919V4.8095H4.11171V13.5919H1.40942Z" fill="white"/>
<path d="M5.46222 7.8114C5.46222 6.76764 5.42776 5.89548 5.39331 5.14221H7.82132L7.94157 6.30622H7.99291C8.33475 5.75833 9.17246 4.95508 10.575 4.95508C12.2855 4.95508 13.5691 6.10017 13.5691 8.56399V13.5916H10.8668V8.95649C10.8668 7.87963 10.4567 7.05814 9.51565 7.05814C8.7982 7.05814 8.43879 7.63913 8.25031 8.11811C8.1814 8.2897 8.16451 8.52886 8.16451 8.76868V13.5916H5.46222V7.8114Z" fill="white"/>
</svg>
