<svg width="17" height="22" viewBox="0 0 17 22" fill="none" xmlns="http://www.w3.org/2000/svg">
<path d="M8.49966 0.699219C4.03116 0.699219 0.399658 4.33072 0.399658 8.79922C0.399658 11.5262 1.97916 13.8077 3.81516 15.4007C4.39566 15.9002 5.40816 16.6967 6.31266 17.8712C7.31166 19.1807 8.21616 20.5847 8.49966 21.5297C8.78316 20.5847 9.68766 19.1807 10.6867 17.8712C11.5912 16.6967 12.6037 15.9002 13.1842 15.4007C15.0202 13.8077 16.5997 11.5262 16.5997 8.79922C16.5997 4.33072 12.9682 0.699219 8.49966 0.699219ZM8.49966 4.15522C9.10952 4.15522 9.7134 4.27534 10.2768 4.50872C10.8403 4.74211 11.3522 5.08418 11.7835 5.51541C12.2147 5.94665 12.5568 6.4586 12.7902 7.02204C13.0235 7.58547 13.1437 8.18936 13.1437 8.79922C13.1437 9.40908 13.0235 10.013 12.7902 10.5764C12.5568 11.1398 12.2147 11.6518 11.7835 12.083C11.3522 12.5143 10.8403 12.8563 10.2768 13.0897C9.7134 13.3231 9.10952 13.4432 8.49966 13.4432C7.26799 13.4432 6.08677 12.9539 5.21585 12.083C4.34494 11.2121 3.85566 10.0309 3.85566 8.79922C3.85566 7.56755 4.34494 6.38633 5.21585 5.51541C6.08677 4.6445 7.26799 4.15522 8.49966 4.15522Z" fill="#0A0A0A"/>
</svg>
