<svg width="26" height="20" viewBox="0 0 26 20" fill="none" xmlns="http://www.w3.org/2000/svg">
<path d="M24.375 0.402345H18.1187C16.7762 0.402345 15.4637 0.787892 14.3344 1.51524L13 2.37109L11.6656 1.51524C10.5375 0.788031 9.22349 0.401627 7.88125 0.402345H1.625C1.14102 0.402345 0.75 0.79336 0.75 1.27734V16.8086C0.75 17.2926 1.14102 17.6836 1.625 17.6836H7.88125C9.22383 17.6836 10.5363 18.0691 11.6656 18.7965L12.8797 19.5785C12.9152 19.6004 12.9563 19.6141 12.9973 19.6141C13.0383 19.6141 13.0793 19.6031 13.1148 19.5785L14.3289 18.7965C15.4609 18.0691 16.7762 17.6836 18.1187 17.6836H24.375C24.859 17.6836 25.25 17.2926 25.25 16.8086V1.27734C25.25 0.79336 24.859 0.402345 24.375 0.402345ZM7.88125 15.7148H2.71875V2.37109H7.88125C8.84922 2.37109 9.78984 2.64727 10.602 3.16953L11.9363 4.02539L12.125 4.14844V16.7813C10.8234 16.0813 9.36875 15.7148 7.88125 15.7148ZM23.2812 15.7148H18.1187C16.6313 15.7148 15.1766 16.0813 13.875 16.7813V4.14844L14.0637 4.02539L15.398 3.16953C16.2102 2.64727 17.1508 2.37109 18.1187 2.37109H23.2812V15.7148ZM9.85273 5.87109H4.77227C4.66563 5.87109 4.57812 5.96406 4.57812 6.07617V7.30664C4.57812 7.41875 4.66563 7.51172 4.77227 7.51172H9.85C9.95664 7.51172 10.0441 7.41875 10.0441 7.30664V6.07617C10.0469 5.96406 9.95937 5.87109 9.85273 5.87109ZM15.9531 6.07617V7.30664C15.9531 7.41875 16.0406 7.51172 16.1473 7.51172H21.225C21.3316 7.51172 21.4191 7.41875 21.4191 7.30664V6.07617C21.4191 5.96406 21.3316 5.87109 21.225 5.87109H16.1473C16.0406 5.87109 15.9531 5.96406 15.9531 6.07617ZM9.85273 9.69922H4.77227C4.66563 9.69922 4.57812 9.79219 4.57812 9.9043V11.1348C4.57812 11.2469 4.66563 11.3398 4.77227 11.3398H9.85C9.95664 11.3398 10.0441 11.2469 10.0441 11.1348V9.9043C10.0469 9.79219 9.95937 9.69922 9.85273 9.69922ZM21.2277 9.69922H16.1473C16.0406 9.69922 15.9531 9.79219 15.9531 9.9043V11.1348C15.9531 11.2469 16.0406 11.3398 16.1473 11.3398H21.225C21.3316 11.3398 21.4191 11.2469 21.4191 11.1348V9.9043C21.4219 9.79219 21.3344 9.69922 21.2277 9.69922Z" fill="white"/>
</svg>
