<svg width="21" height="21" viewBox="0 0 21 21" fill="none" xmlns="http://www.w3.org/2000/svg">
<path d="M19.2498 14.8012V17.4262C19.2507 17.6699 19.2008 17.9111 19.1032 18.1344C19.0056 18.3576 18.8624 18.5581 18.6828 18.7228C18.5033 18.8876 18.2913 19.013 18.0604 19.091C17.8296 19.1691 17.585 19.1981 17.3423 19.1762C14.6497 18.8836 12.0634 17.9636 9.79101 16.4899C7.67686 15.1465 5.88443 13.3541 4.54101 11.2399C3.06224 8.95723 2.14197 6.3583 1.85476 3.65368C1.83289 3.41171 1.86165 3.16784 1.9392 2.9376C2.01674 2.70736 2.14138 2.49578 2.30518 2.31635C2.46897 2.13691 2.66834 1.99355 2.89058 1.89539C3.11281 1.79722 3.35306 1.74641 3.59601 1.74618H6.22101C6.64565 1.742 7.05733 1.89237 7.3793 2.16927C7.70127 2.44617 7.91158 2.83069 7.97101 3.25118C8.0818 4.09124 8.28728 4.91606 8.58351 5.70993C8.70123 6.02311 8.72671 6.36348 8.65693 6.6907C8.58714 7.01792 8.42501 7.31828 8.18976 7.55618L7.07851 8.66743C8.32412 10.858 10.1379 12.6718 12.3285 13.9174L13.4398 12.8062C13.6777 12.5709 13.978 12.4088 14.3052 12.339C14.6325 12.2692 14.9728 12.2947 15.286 12.4124C16.0799 12.7087 16.9047 12.9141 17.7448 13.0249C18.1698 13.0849 18.558 13.299 18.8355 13.6265C19.113 13.954 19.2604 14.3721 19.2498 14.8012Z" stroke="#77BC1F" stroke-width="1.75" stroke-linecap="round" stroke-linejoin="round"/>
</svg>
