<svg width="27" height="25" viewBox="0 0 27 25" fill="none" xmlns="http://www.w3.org/2000/svg">
<path d="M22.5404 7.33333H4.45703C2.31286 7.33333 0.582031 9.06417 0.582031 11.2083V18.9583H5.7487V24.125H21.2487V18.9583H26.4154V11.2083C26.4154 9.06417 24.6845 7.33333 22.5404 7.33333ZM18.6654 21.5417H8.33203V15.0833H18.6654V21.5417ZM22.5404 12.5C21.8299 12.5 21.2487 11.9187 21.2487 11.2083C21.2487 10.4979 21.8299 9.91667 22.5404 9.91667C23.2508 9.91667 23.832 10.4979 23.832 11.2083C23.832 11.9187 23.2508 12.5 22.5404 12.5ZM21.2487 0.875H5.7487V6.04167H21.2487V0.875Z" fill="#A69E9E"/>
</svg>
