<svg width="15" height="15" viewBox="0 0 15 15" fill="none" xmlns="http://www.w3.org/2000/svg">
<g clip-path="url(#clip0)">
<path d="M7.79312 1.81641C5.38639 1.81641 3.00781 3.42089 3.00781 6.01762C3.00781 7.66902 3.93672 8.60732 4.4997 8.60732C4.73193 8.60732 4.86564 7.95989 4.86564 7.77693C4.86564 7.55877 4.3097 7.09432 4.3097 6.18652C4.3097 4.30054 5.74529 2.96347 7.60311 2.96347C9.20056 2.96347 10.3828 3.87127 10.3828 5.53909C10.3828 6.78468 9.88317 9.12103 8.26461 9.12103C7.68052 9.12103 7.18088 8.6988 7.18088 8.0936C7.18088 7.20691 7.80016 6.34837 7.80016 5.43353C7.80016 3.88066 5.59751 4.16214 5.59751 6.03873C5.59751 6.43282 5.64677 6.86913 5.8227 7.22802C5.49899 8.62139 4.83749 10.6974 4.83749 12.133C4.83749 12.5763 4.90082 13.0126 4.94305 13.456C5.0228 13.5451 4.98292 13.5357 5.1049 13.4911C6.28715 11.8726 6.24493 11.5559 6.77976 9.43771C7.06828 9.98661 7.81423 10.2822 8.40536 10.2822C10.8965 10.2822 12.0154 7.85434 12.0154 5.66576C12.0154 3.33644 10.0028 1.81641 7.79312 1.81641Z" fill="white"/>
</g>
<defs>
<clipPath id="clip0">
<rect x="3.00757" y="1.66211" width="9.00763" height="12.0102" fill="white"/>
</clipPath>
</defs>
</svg>
