<svg width="27" height="19" viewBox="0 0 27 19" fill="none" xmlns="http://www.w3.org/2000/svg">
<path  d="M16.4304 3.30617L21.1558 8.00334L2.36174 8.00333C1.41639 8.00333 0.650389 8.7652 0.650389 9.70545C0.650389 10.6457 1.41639 11.4076 2.36174 11.4076L21.1517 11.4076L16.4311 16.0939C15.7623 16.7577 15.7616 17.8361 16.4284 18.5006C17.0971 19.1658 18.1801 19.1672 18.8489 18.5034L26.4979 10.9106C26.4986 10.9092 26.4986 10.9092 26.4986 10.9092C26.5773 10.8309 26.6485 10.7458 26.7101 10.6525C26.7286 10.626 26.7403 10.5967 26.7567 10.5688C26.7971 10.5007 26.8368 10.4346 26.8676 10.3611C26.8847 10.3209 26.8929 10.2787 26.9066 10.2372C26.9278 10.1732 26.9525 10.1092 26.9668 10.0418C26.9888 9.93286 27.0004 9.81984 27.0004 9.70546C27.0004 9.70546 27.0004 9.70546 27.0004 9.70478C27.0004 9.59108 26.9888 9.47806 26.9668 9.36844C26.9518 9.29355 26.9251 9.22342 26.9004 9.15329C26.8888 9.11925 26.8827 9.08316 26.8683 9.05116C26.8354 8.97219 26.7923 8.89865 26.7478 8.82716C26.7341 8.8047 26.7252 8.78087 26.7108 8.75908C26.6479 8.6658 26.5767 8.57866 26.4973 8.49968L18.8496 0.89869C18.1808 0.234182 17.0972 0.234181 16.4297 0.89937C15.7616 1.56388 15.7623 2.64234 16.4304 3.30617Z" fill="#A69E9E"/>
</svg>
