<svg width="15" height="15" viewBox="0 0 15 15" fill="none" xmlns="http://www.w3.org/2000/svg">
<path d="M14.9512 4.50902L11.84 0.104714C11.7912 0.0376965 11.7134 -0.00195312 11.6305 -0.00195312C11.5476 -0.00195312 11.4698 0.0376965 11.421 0.104714L8.32534 4.50902C8.26959 4.58707 8.26232 4.68978 8.30652 4.7749C8.35072 4.86002 8.43891 4.91317 8.53482 4.91247H10.0865V5.68833C10.0866 6.71971 9.64166 7.70097 8.86585 8.38058L8.22965 8.93661C7.96722 9.16706 7.72336 9.41784 7.50034 9.68661C7.27732 9.41784 7.03346 9.16706 6.77103 8.93661L6.13482 8.38058C5.35901 7.70097 4.9141 6.71971 4.91413 5.68833V4.91247H6.46585C6.56176 4.91317 6.64996 4.86002 6.69415 4.7749C6.73835 4.68978 6.73108 4.58707 6.67534 4.50902L3.56413 0.104714C3.51539 0.0376965 3.43752 -0.00195312 3.35465 -0.00195312C3.27178 -0.00195312 3.19391 0.0376965 3.14517 0.104714L0.0494765 4.50902C-0.00626736 4.58707 -0.0135365 4.68978 0.03066 4.7749C0.0748565 4.86002 0.163052 4.91317 0.258959 4.91247H1.81068V5.68833C1.81025 7.61476 2.64179 9.44753 4.09172 10.7159L4.72792 11.272C5.50373 11.9516 5.94864 12.9328 5.94861 13.9642V14.7401C5.94861 14.8829 6.0644 14.9987 6.20723 14.9987H8.79344C8.93627 14.9987 9.05206 14.8829 9.05206 14.7401V13.9642C9.05203 12.9328 9.49694 11.9516 10.2728 11.272L10.909 10.7159C12.3589 9.44753 13.1904 7.61476 13.19 5.68833V4.91247H14.7417C14.8376 4.91317 14.9258 4.86002 14.97 4.7749C15.0142 4.68978 15.0069 4.58707 14.9512 4.50902Z" fill="white"/>
</svg>
