<svg width="18" height="19" viewBox="0 0 18 19" fill="none" xmlns="http://www.w3.org/2000/svg">
<g clip-path="url(#clip0)">
<path d="M17.5499 1.71451C17.3357 1.50023 17.0142 1.43594 16.6928 1.54308L1.9928 7.43594C1.6928 7.54308 1.47852 7.86451 1.47852 8.18594C1.47852 8.5288 1.71423 8.8288 2.01423 8.91451L8.22852 11.0574L10.3714 17.2717C10.4785 17.5717 10.7357 17.7645 11.0571 17.8074H11.0999C11.4214 17.8074 11.7428 17.5931 11.8499 17.2931L17.7428 2.57166C17.8714 2.27166 17.7857 1.95023 17.5499 1.71451ZM11.3357 9.06451C11.4857 8.91451 11.5714 8.72166 11.5714 8.50737C11.5714 8.29308 11.4857 8.10023 11.3357 7.95023C11.0357 7.65023 10.5214 7.65023 10.2214 7.95023L8.65709 9.51451L4.58566 8.12166L15.5999 3.70737L11.1642 14.7002L9.77137 10.6074L11.3357 9.06451Z" fill="white"/>
</g>
<defs>
<clipPath id="clip0">
<rect y="0.5" width="17.7857" height="18" fill="white"/>
</clipPath>
</defs>
</svg>
