<svg width="13" height="11" viewBox="0 0 13 11" fill="none" xmlns="http://www.w3.org/2000/svg">
<path d="M12.0858 1.7429C11.6631 1.94122 11.2095 2.07572 10.733 2.13576C11.2196 1.82725 11.592 1.33789 11.7686 0.756584C11.3121 1.04229 10.8083 1.24975 10.2715 1.36221C9.84165 0.876656 9.2302 0.574219 8.552 0.574219C7.25089 0.574219 6.19592 1.69124 6.19592 3.06813C6.19592 3.26341 6.21673 3.45414 6.25693 3.63653C4.29916 3.53241 2.56314 2.53926 1.40125 1.03013C1.19815 1.39792 1.08261 1.82647 1.08261 2.28393C1.08261 3.14944 1.49885 3.91311 2.1304 4.35991C1.74429 4.34624 1.38115 4.23377 1.06324 4.04684V4.07799C1.06324 5.2862 1.87564 6.29455 2.95284 6.52404C2.75548 6.58027 2.54736 6.61143 2.33206 6.61143C2.17992 6.61143 2.0328 6.59547 1.88855 6.56507C2.18852 7.55671 3.05834 8.27783 4.08891 8.2976C3.28297 8.9663 2.26675 9.36371 1.163 9.36371C0.972827 9.36371 0.785506 9.35155 0.601074 9.32951C1.64384 10.0385 2.88181 10.4519 4.21235 10.4519C8.5463 10.4519 10.9153 6.65095 10.9153 3.35462L10.9074 3.03167C11.3703 2.6821 11.7707 2.2429 12.0858 1.7429Z" fill="white"/>
</svg>
