<svg width="57" height="41" viewBox="0 0 57 41" fill="none" xmlns="http://www.w3.org/2000/svg">
<path d="M55.7505 6.79541C55.4267 5.5896 54.7919 4.48997 53.9097 3.60658C53.0274 2.72318 51.9285 2.08701 50.7231 1.76172C46.2861 0.56836 28.5 0.568359 28.5 0.568359C28.5 0.568359 10.7139 0.568359 6.27685 1.75537C5.07093 2.0796 3.97154 2.71542 3.0891 3.59898C2.20666 4.48254 1.57222 5.58273 1.24951 6.78906C0.0624998 11.2324 0.0625 20.5 0.0625 20.5C0.0625 20.5 0.0624998 29.7676 1.24951 34.2046C1.90332 36.6548 3.83301 38.5845 6.27685 39.2383C10.7139 40.4316 28.5 40.4316 28.5 40.4316C28.5 40.4316 46.2861 40.4316 50.7231 39.2383C53.1733 38.5845 55.0967 36.6548 55.7505 34.2046C56.9375 29.7676 56.9375 20.5 56.9375 20.5C56.9375 20.5 56.9375 11.2324 55.7505 6.79541ZM22.8506 29.0059V11.9941L37.5771 20.4365L22.8506 29.0059Z" fill="#0A0A0A"/>
</svg>
