<svg width="15" height="15" viewBox="0 0 15 15" fill="none" xmlns="http://www.w3.org/2000/svg">
<g clip-path="url(#clip0)">
<path d="M11.6877 2.33062V6.77116H10.7797V6.27461C10.4297 6.64347 10.0798 6.82791 9.72985 6.82791C9.30424 6.82791 9.09144 6.56308 9.09144 6.03343V2.33062H9.9994V5.7355C9.9994 5.93412 10.0798 6.03343 10.2406 6.03343C10.4014 6.03343 10.5811 5.91994 10.7797 5.69294V2.33062H11.6877ZM8.32534 3.36627V5.66457C8.32534 6.06181 8.20711 6.36446 7.97066 6.57254C7.73421 6.78062 7.41264 6.88465 7.00594 6.88465C6.61817 6.88465 6.30369 6.77352 6.06251 6.55126C5.82133 6.32899 5.70074 6.0287 5.70074 5.65038V3.35208C5.70074 2.98322 5.83079 2.70185 6.09088 2.50796C6.35098 2.31407 6.67018 2.21712 7.0485 2.21712C7.40791 2.21712 7.71057 2.32116 7.95647 2.52924C8.20238 2.73731 8.32534 3.01632 8.32534 3.36627ZM7.40318 5.7355V3.30952C7.40318 3.21494 7.36062 3.13691 7.2755 3.07544C7.19037 3.01396 7.10052 2.98322 7.00594 2.98322C6.91136 2.98322 6.82624 3.01396 6.75058 3.07544C6.67491 3.13691 6.63708 3.21494 6.63708 3.30952V5.7355C6.63708 5.98141 6.76004 6.10437 7.00594 6.10437C7.27077 6.10437 7.40318 5.98141 7.40318 5.7355ZM4.70765 0.755859H5.7433L4.96301 3.09672C4.92518 3.21021 4.87789 3.34026 4.82114 3.48686C4.76439 3.63346 4.71474 3.76587 4.67218 3.8841C4.62962 4.00232 4.59415 4.13237 4.56578 4.27424V6.77116H3.54431V4.38774C3.52539 4.27424 3.38825 3.87228 3.13289 3.18184L2.32423 0.755859H3.35988L4.01248 3.15347H4.08342L4.70765 0.755859ZM13.3759 11.2401C13.3759 11.7035 13.3475 12.3892 13.2908 13.2972C13.253 13.7701 13.0709 14.146 12.7446 14.4251C12.4183 14.7041 12.0187 14.853 11.5458 14.8719C10.6094 14.9192 9.20493 14.9429 7.33224 14.9429C5.4501 14.9429 4.04559 14.9192 3.1187 14.8719C2.6458 14.853 2.2462 14.7041 1.9199 14.4251C1.5936 14.146 1.41153 13.7701 1.3737 13.2972C1.31695 12.3892 1.28857 11.7035 1.28857 11.2401C1.28857 10.7766 1.31695 10.0909 1.3737 9.18295C1.41153 8.71005 1.5936 8.33409 1.9199 8.05508C2.2462 7.77607 2.6458 7.62711 3.1187 7.60819C4.04559 7.5609 5.4501 7.53726 7.33224 7.53726C9.21439 7.53726 10.6189 7.5609 11.5458 7.60819C12.0187 7.62711 12.4183 7.77607 12.7446 8.05508C13.0709 8.33409 13.253 8.71005 13.2908 9.18295C13.3475 10.0909 13.3759 10.7766 13.3759 11.2401ZM12.3686 12.5311V12.2615H11.6167C11.6167 12.2805 11.6191 12.3419 11.6238 12.446C11.6285 12.55 11.6285 12.6233 11.6238 12.6659C11.6191 12.7084 11.6073 12.7628 11.5884 12.829C11.5694 12.8952 11.5363 12.9425 11.489 12.9709C11.4418 12.9993 11.3755 13.0134 11.2904 13.0134C11.1958 13.0134 11.1225 12.9851 11.0705 12.9283C11.0185 12.8716 10.9901 12.8148 10.9854 12.7581C10.9807 12.7013 10.9783 12.6209 10.9783 12.5169V11.8359H12.3686V10.928C12.3686 10.5969 12.2788 10.3368 12.0991 10.1477C11.9194 9.95851 11.664 9.86393 11.333 9.86393C11.0114 9.86393 10.7442 9.96087 10.5314 10.1548C10.3186 10.3487 10.2122 10.6064 10.2122 10.928V12.5311C10.2122 12.8716 10.3044 13.1435 10.4889 13.3468C10.6733 13.5502 10.9357 13.6519 11.2762 13.6519C12.0045 13.6519 12.3686 13.2783 12.3686 12.5311ZM9.65892 12.8006V10.8145C9.65892 10.2186 9.42247 9.92068 8.94956 9.92068C8.71311 9.92068 8.49558 10.0294 8.29696 10.247V8.68641H7.55924V13.5526H8.29696V13.2688C8.50504 13.4863 8.73676 13.5951 8.99213 13.5951C9.43665 13.5951 9.65892 13.3303 9.65892 12.8006ZM6.11216 13.5526H6.8357V9.96324H6.11216V12.6871C5.95138 12.8668 5.80478 12.9567 5.67236 12.9567C5.54941 12.9567 5.48793 12.8763 5.48793 12.7155V9.96324H4.75021V12.9851C4.75021 13.4012 4.92045 13.6093 5.26094 13.6093C5.54468 13.6093 5.82842 13.458 6.11216 13.1553V13.5526ZM3.89899 9.39576H4.76439V8.68641H2.22492V9.39576H3.07614V13.5526H3.89899V9.39576ZM11.6167 10.8854V11.2826H10.9783V10.8854C10.9783 10.63 11.0871 10.5023 11.3046 10.5023C11.5127 10.5023 11.6167 10.63 11.6167 10.8854ZM8.907 10.8428V12.7297C8.907 12.9283 8.82188 13.0276 8.65164 13.0276C8.51923 13.0276 8.401 12.9756 8.29696 12.8716V10.63C8.39154 10.5354 8.49558 10.4882 8.60908 10.4882C8.80769 10.4882 8.907 10.6064 8.907 10.8428Z" fill="white"/>
</g>
<defs>
<clipPath id="clip0">
<rect x="0.238647" y="0.755859" width="14.187" height="14.187" fill="white"/>
</clipPath>
</defs>
</svg>
