<svg width="73" height="51" viewBox="0 0 73 51" fill="none" xmlns="http://www.w3.org/2000/svg">
<circle cx="37.136" cy="23.5852" r="14.0462" fill="white"/>
<path d="M71.2968 7.99834C70.8834 6.45861 70.0728 5.05447 68.9462 3.92644C67.8196 2.79842 66.4165 1.98607 64.8772 1.5707C59.2115 0.0468753 36.5 0.046875 36.5 0.046875C36.5 0.046875 13.7885 0.0468747 8.12275 1.5626C6.58288 1.97662 5.17905 2.78851 4.05223 3.91675C2.92542 5.04498 2.1153 6.44984 1.70322 7.99023C0.1875 13.6641 0.1875 25.498 0.1875 25.498C0.1875 25.498 0.1875 37.332 1.70322 42.9978C2.53809 46.1265 5.00215 48.5905 8.12275 49.4254C13.7885 50.9492 36.5 50.9492 36.5 50.9492C36.5 50.9492 59.2115 50.9492 64.8772 49.4254C68.006 48.5905 70.4619 46.1265 71.2968 42.9978C72.8125 37.332 72.8125 25.498 72.8125 25.498C72.8125 25.498 72.8125 13.6641 71.2968 7.99834ZM29.2861 36.3594V14.6367L48.0908 25.417L29.2861 36.3594Z" fill="#0A0A0A"/>
</svg>
